<svg xmlns="http://www.w3.org/2000/svg" width="1024" height="1024" viewBox="0 0 1024 1024">
  <defs>
    <linearGradient id="bg" x1="0" y1="0" x2="0" y2="1">
      <stop offset="0" stop-color="#FBF6EC"/><stop offset="0.5" stop-color="#F3E7CE"/><stop offset="1" stop-color="#E6CFA2"/>
    </linearGradient>
    <linearGradient id="ink" x1="0" y1="0" x2="0" y2="1">
      <stop offset="0" stop-color="#2B2A26"/><stop offset="1" stop-color="#15140F"/>
    </linearGradient>
    <radialGradient id="halo" cx="0.5" cy="0.46" r="0.5">
      <stop offset="0" stop-color="#FFFDF6" stop-opacity="0.85"/>
      <stop offset="1" stop-color="#FFFDF6" stop-opacity="0"/>
    </radialGradient>
    <linearGradient id="sheen" x1="0" y1="0" x2="0" y2="1">
      <stop offset="0" stop-color="#ffffff" stop-opacity="0.42"/>
      <stop offset="0.45" stop-color="#ffffff" stop-opacity="0.05"/>
      <stop offset="1" stop-color="#ffffff" stop-opacity="0"/>
    </linearGradient>
    <radialGradient id="vign" cx="0.5" cy="0.42" r="0.85">
      <stop offset="0.66" stop-color="#000000" stop-opacity="0"/>
      <stop offset="1" stop-color="#6b4f1d" stop-opacity="0.16"/>
    </radialGradient>
  </defs>
  <rect width="1024" height="1024" fill="url(#bg)"/>
  <rect width="1024" height="1024" fill="url(#halo)"/>
  <rect width="1024" height="1024" fill="url(#vign)"/>
  <g transform="translate(10.76,-14.23) scale(0.9800)">
    <path d="M503.29 263.9c-0.44 0.33 -0.76 1.85 -0.76 3.27c0 1.74 -0.65 2.51 -2.18 2.51c-2.61 -0 -2.83 2.72 -0.54 5.01c2.29 2.29 2.07 3.7 -0.65 3.7c-3.59 -0 -2.07 3.49 2.61 5.99c4.68 2.51 5.12 3.81 1.31 3.81c-1.42 -0 -3.05 0.87 -3.7 1.85c-0.87 1.63 -1.31 1.31 -3.38 -2.18c-2.72 -4.47 -4.25 -5.12 -5.12 -1.85c-0.65 2.61 -0.44 2.61 -5.23 0.33c-5.34 -2.51 -7.19 -0.65 -3.92 3.81c2.61 3.7 2.83 5.23 0.98 6.1c-2.29 0.87 2.29 3.92 5.88 3.92c3.27 -0 4.14 1.53 1.42 2.61c-0.98 0.33 -1.63 1.96 -1.63 4.25c0 4.9 -0.98 5.56 -4.03 2.72c-3.49 -3.27 -4.9 -1.53 -3.49 4.03c2.18 8.39 2.07 8.71 -3.59 8.93c-5.88 0.33 -5.88 0.33 -3.49 -4.14c0.87 -1.85 1.53 -4.58 1.31 -6.21c-0.33 -2.83 -0.54 -2.94 -6.75 -2.94c-7.52 -0 -9.15 -1.85 -3.49 -3.81c5.12 -1.63 5.56 -5.45 0.65 -5.45c-3.16 -0 -3.16 -0 -1.53 -4.58c2.07 -5.77 0.65 -7.3 -3.7 -3.7c-3.81 3.27 -4.25 3.38 -6.43 1.2c-2.29 -2.4 -3.59 -1.09 -3.59 3.81c0 4.9 -0.87 5.77 -3.59 3.81c-1.31 -0.87 -1.85 -2.51 -1.63 -5.01c0.33 -3.27 0 -3.7 -2.07 -3.38c-3.05 0.44 -3.05 0.11 -0.33 -4.36c2.83 -4.79 2.72 -5.23 -1.09 -5.23c-2.61 -0 -3.27 -0.44 -3.27 -2.51c-0.11 -5.77 -4.68 -6.86 -6.1 -1.42c-0.54 2.4 -1.09 2.72 -3.49 2.07c-2.83 -0.65 -3.05 1.09 -0.76 6.65c0.76 1.85 0.54 1.96 -1.96 1.31c-3.92 -0.98 -3.92 1.85 -0.22 6.97c2.51 3.38 2.61 3.92 1.09 5.01c-0.87 0.65 -1.63 2.07 -1.63 3.05c0 2.72 -1.96 1.09 -3.81 -3.27c-1.53 -3.81 -3.49 -4.68 -5.77 -2.4c-0.87 0.87 -2.07 0.33 -4.58 -2.4c-3.05 -3.27 -3.49 -3.38 -4.68 -1.74c-1.2 1.63 -1.63 1.53 -3.81 -1.53c-3.27 -4.47 -8.61 -4.47 -7.95 -0c1.2 7.63 1.42 7.41 -7.19 5.88c-3.92 -0.76 -5.01 1.42 -1.96 3.92c2.4 1.96 2.07 2.83 -1.85 3.92c-8.28 2.4 -0.87 7.63 8.93 6.32c6.21 -0.87 6.97 0.33 2.07 3.27c-6.65 3.92 -0.22 7.41 8.39 4.58c2.29 -0.76 2.29 -0.65 1.09 3.05c-0.76 2.72 -2.07 4.25 -4.14 4.9c-3.92 1.42 -3.92 3.16 0 4.58c2.83 1.09 4.79 0.98 13.29 -0.76c3.7 -0.76 3.7 -0.65 2.07 1.31c-0.98 1.09 -2.07 4.03 -2.4 6.32c-0.98 6.1 -2.4 7.08 -5.66 3.92c-3.92 -3.7 -6.54 -1.96 -6.54 4.47c0 3.7 -0.44 4.79 -1.85 5.12c-2.18 0.44 -2.29 -0.11 -1.96 -9.48c0.22 -5.88 0.22 -5.88 -3.16 -5.23c-3.38 0.76 -3.38 0.76 -2.72 -3.59c1.09 -6.65 -1.09 -8.61 -5.23 -4.68c-3.05 2.94 -3.05 2.94 -2.94 -2.18c0.33 -6.1 -1.2 -8.28 -3.81 -5.66c-0.98 0.98 -1.74 2.51 -1.74 3.38c0 2.18 -1.96 1.85 -3.49 -0.65c-1.63 -2.61 -2.83 -2.72 -5.23 -0.54c-1.74 1.53 -2.07 1.42 -3.7 -1.09c-2.94 -4.47 -5.66 -3.49 -5.12 1.85c0.11 1.09 -0.44 1.96 -1.42 1.96c-1.31 -0 -1.74 1.09 -1.74 3.7c0 6.32 -3.27 5.88 -4.9 -0.65c-0.87 -3.59 -4.58 -7.08 -5.88 -5.66c-0.54 0.54 -1.2 2.4 -1.42 4.25c-0.33 3.49 -0.65 3.59 -5.99 1.42c-1.96 -0.65 -3.81 -0.98 -4.25 -0.54c-0.65 0.65 0.54 5.66 2.51 10.35c0.33 0.98 -0.54 1.31 -3.05 1.09c-4.47 -0.44 -5.34 1.96 -2.18 5.77c1.53 1.96 3.49 2.72 8.17 3.16c7.41 0.65 7.95 2.18 1.53 4.36c-3.38 1.2 -4.68 2.29 -4.68 3.81c0 1.85 -0.76 2.18 -4.58 2.18c-7.41 -0 -7.3 2.07 0.33 6.65c1.96 1.2 1.96 1.31 -0.11 3.59c-3.59 4.14 0.87 5.77 7.84 2.83c4.58 -1.96 5.34 -1.63 3.59 1.53c-2.51 4.68 1.31 5.77 7.84 2.29c5.34 -2.83 6.65 -0.76 1.42 2.29c-4.58 2.72 -4.47 4.68 0.33 5.12c3.81 0.44 5.01 3.49 1.31 3.49c-1.42 -0 -2.83 1.31 -4.03 3.81c-2.51 5.23 -3.92 4.79 -6.75 -2.18c-2.83 -6.97 -5.99 -8.17 -6.97 -2.72c-1.2 5.77 -5.88 3.05 -7.73 -4.36c-1.2 -5.01 -2.51 -6.21 -5.12 -4.58c-1.96 1.31 -2.61 1.2 -4.47 -0.87c-2.94 -3.16 -4.79 -2.18 -4.36 2.51c0.33 4.9 -1.31 5.99 -3.7 2.29c-1.85 -2.83 -1.85 -3.05 1.09 -8.17c3.27 -5.77 3.05 -7.63 -0.65 -6.65c-1.96 0.44 -2.18 0.22 -1.53 -2.07c2.72 -9.26 1.74 -11.98 -2.83 -7.84c-1.85 1.63 -1.96 1.53 -1.96 -3.16c0 -5.77 -0.65 -6.65 -3.49 -5.12c-1.74 0.98 -2.51 0.76 -3.81 -1.09c-2.51 -3.59 -4.68 -2.83 -4.68 1.53c0 2.07 -0.44 3.92 -1.09 3.92c-0.54 0.11 -1.53 0.33 -2.18 0.44c-0.54 0.11 -1.53 0.33 -2.18 0.44c-1.96 0.22 -1.2 2.94 1.63 5.56c3.59 3.38 3.49 4.36 -0.44 4.36c-7.41 -0 -4.03 5.66 4.14 6.97c4.79 0.76 5.77 2.29 2.18 3.38c-3.49 1.09 -1.85 3.16 3.7 4.58c6.1 1.53 7.3 2.18 7.3 4.25c0 1.09 -1.53 1.53 -5.99 1.53c-6.43 -0 -6.97 -0.33 -12.85 -8.06c-3.7 -4.79 -5.99 -5.01 -6.97 -0.65c-0.76 4.03 -0.22 4.14 -6.1 -1.63c-5.66 -5.77 -8.39 -5.66 -8.39 0.11c0 4.25 -0.76 4.58 -4.79 1.42c-4.14 -3.27 -7.73 -2.4 -7.73 1.74c-0.11 3.05 -0.44 3.27 -4.79 3.92c-6.86 0.87 -8.61 5.66 -2.61 7.08c2.29 0.65 2.51 1.2 1.96 3.81c-0.87 3.81 1.74 4.25 7.19 1.42c3.92 -1.96 4.9 -1.53 3.16 1.63c-2.72 5.23 3.05 5.56 9.04 0.54c1.74 -1.42 3.81 -2.61 4.68 -2.61c2.94 -0 -0.65 4.79 -5.23 7.08c-5.23 2.51 -6.1 4.25 -3.7 6.97c2.18 2.4 2.18 4.03 0.11 4.9c-0.87 0.33 -2.18 1.85 -2.72 3.38c-2.18 5.66 -4.03 2.72 -4.58 -7.08c-0.33 -4.47 -0.54 -4.9 -3.05 -4.9c-1.53 -0 -4.58 -0.65 -6.86 -1.53c-5.66 -1.96 -7.41 -0.33 -4.79 4.14c1.85 3.16 1.85 3.27 -0.33 3.92c-2.51 0.76 -2.72 1.74 -0.87 3.59c2.18 2.18 0 2.83 -2.83 0.87c-4.03 -2.61 -7.19 -2.29 -6.86 0.65c0.22 2.07 -0.44 2.61 -3.05 2.83c-6.75 0.76 -8.06 4.79 -2.18 6.75c2.61 0.87 3.81 1.85 3.59 3.05c-0.44 2.61 3.59 2.94 7.84 0.76c4.14 -2.18 4.9 -1.74 3.16 1.96c-0.98 2.29 -0.98 3.27 0.11 4.58c1.2 1.42 0.65 1.63 -4.36 1.63c-5.12 -0 -5.66 0.22 -5.12 2.18c0.44 1.85 0 2.18 -3.59 2.18c-6.65 -0 -8.17 0.87 -5.88 3.38c0.98 1.2 2.61 2.07 3.49 2.07c1.09 -0 1.42 0.76 0.98 2.29c-0.87 3.27 2.07 3.92 5.66 1.2c3.05 -2.18 3.05 -2.18 4.14 0.65c0.98 2.94 0.98 2.94 5.01 -1.2c4.25 -4.47 5.12 -4.79 5.12 -2.4c0 2.61 4.14 1.96 5.01 -0.87c1.53 -5.12 8.06 -8.82 8.06 -4.58c0 0.87 0.87 1.63 1.96 1.63c3.05 -0 3.59 1.09 1.85 3.7c-3.49 4.79 -1.42 8.17 3.49 5.77c1.63 -0.76 3.92 -1.31 4.9 -1.09c1.31 0.33 2.4 -0.54 3.16 -2.29c0.76 -1.53 2.18 -2.83 3.27 -2.83c1.53 -0 2.4 -1.31 3.27 -5.01c1.74 -6.75 8.61 -11 8.61 -5.23c0 1.31 0.76 1.53 3.27 0.98c4.47 -0.98 4.47 1.96 0 4.58c-5.88 3.38 -3.16 6.21 5.45 5.66c5.34 -0.44 6.21 1.31 1.2 2.51c-1.96 0.54 -4.9 1.74 -6.32 2.72c-2.51 1.63 -2.94 1.63 -6.97 -0.65c-5.45 -3.16 -6.86 -2.29 -5.88 3.81c0.87 6.32 0.11 7.41 -3.81 5.34c-4.58 -2.4 -7.63 -2.07 -7.63 0.65c0 1.2 -0.54 3.27 -1.2 4.47c-1.2 2.29 -1.31 2.18 -2.61 -1.09c-2.07 -4.79 -5.45 -6.32 -7.41 -3.38c-1.53 2.07 -1.85 2.18 -4.9 0.54c-4.25 -2.18 -5.66 -2.18 -5.66 -0.11c0 0.98 -0.76 1.96 -1.63 2.29c-2.94 1.2 -1.74 3.38 2.72 5.23c4.79 1.85 5.66 3.81 2.07 4.68c-1.74 0.54 -2.07 1.2 -1.53 3.59c0.54 2.18 0.22 3.16 -1.2 3.7c-2.61 0.98 -4.14 -0.87 -7.19 -8.5c-2.72 -6.97 -5.01 -8.82 -5.99 -5.12c-0.87 3.38 -2.18 2.83 -3.59 -1.53c-1.53 -4.68 -3.16 -5.77 -5.01 -3.38c-1.2 1.74 -1.53 1.63 -4.36 -1.2c-3.05 -3.05 -3.05 -3.05 -3.7 -0.33c-0.44 1.85 -0.87 2.29 -1.53 1.31c-1.09 -1.85 -5.01 -1.63 -5.01 0.22c0 0.87 1.53 3.05 3.38 4.79c3.38 3.16 3.38 3.27 1.09 4.03c-3.16 0.98 -2.94 3.59 0.44 4.36c1.53 0.33 3.92 0.76 5.45 1.09c3.7 0.76 3.38 2.4 -0.54 3.27c-1.85 0.44 -3.27 1.42 -3.27 2.29c0 3.27 -3.38 2.94 -7.08 -0.65c-4.58 -4.36 -6.65 -3.92 -6.21 1.42c0.33 3.92 0.33 3.92 -4.36 4.25c-6.54 0.44 -6.86 4.79 -0.54 7.63c4.68 2.29 4.79 2.61 1.63 5.23c-3.92 3.16 -1.2 5.01 4.9 3.59c6.1 -1.31 10.46 -0 8.28 2.51c-0.87 1.09 -2.4 1.53 -4.36 1.09c-1.63 -0.33 -3.81 0.11 -4.9 0.98c-1.96 1.42 -1.85 1.63 1.63 5.34c2.61 2.72 3.49 4.25 2.72 5.01c-1.85 1.85 -4.25 0.22 -5.77 -3.92c-1.31 -3.7 -1.53 -3.81 -3.38 -2.07c-1.96 1.74 -2.18 1.63 -3.59 -1.96c-2.07 -4.68 -4.03 -5.99 -5.34 -3.49c-0.98 1.63 -1.42 1.42 -4.25 -1.85c-3.16 -3.7 -6.1 -2.94 -4.47 1.09c0.44 1.31 0.11 1.53 -1.53 0.87c-7.52 -3.16 -10.78 -1.85 -6.65 2.4c2.18 2.29 2.61 3.38 1.74 4.25c-1.85 1.85 -0.11 3.59 3.38 3.59c2.72 -0 3.16 0.44 2.94 2.4c-0.22 2.4 0.11 2.51 5.56 2.29c6.32 -0.33 6.86 0.33 2.83 3.38c-2.72 1.96 -3.05 1.96 -6.54 0.22c-6.97 -3.27 -9.04 -2.29 -6.97 3.27c1.53 3.92 1.09 4.14 -4.47 1.63c-5.12 -2.4 -6.43 -2.18 -6.43 1.09c0 1.63 -0.76 2.07 -3.81 2.07c-4.03 -0 -4.68 0.87 -2.4 3.16c0.98 1.2 0.98 1.53 0 1.96c-2.94 1.09 -6.1 4.36 -5.34 5.56c0.44 0.76 2.83 1.31 5.45 1.31c4.03 -0 4.58 0.33 4.58 2.29c-0.22 3.92 2.07 3.49 7.52 -1.2c5.66 -4.9 6.75 -5.01 4.68 -0.65c-1.42 3.27 -0.11 5.01 3.92 5.01c1.63 -0 1.74 0.33 0.76 1.53c-0.65 0.87 -1.09 2.18 -0.98 2.94c0.33 1.53 0 1.53 -8.06 0.22c-4.14 -0.65 -5.99 1.63 -3.05 3.49c2.61 1.63 0.65 2.61 -4.36 1.96c-5.12 -0.54 -7.3 0.54 -4.36 2.4c1.85 1.2 1.2 2.18 -2.29 3.49c-4.14 1.63 -3.7 3.7 0.98 4.9c2.4 0.65 3.49 1.63 3.49 3.05c0 3.05 3.16 2.72 6.75 -0.76c3.05 -2.94 3.05 -2.94 3.05 -0.22c0.11 7.41 3.7 6.43 8.17 -2.18c2.4 -4.58 2.72 -4.79 3.38 -2.51c1.09 3.81 3.27 2.83 5.88 -2.83c3.05 -6.65 6.32 -10.02 9.48 -10.02c3.7 -0 3.05 1.85 -1.85 4.9c-4.47 2.83 -5.66 4.9 -2.72 4.9c2.4 -0 2.07 0.87 -1.85 4.68c-3.49 3.27 -3.49 3.49 -1.2 3.81c2.18 0.33 2.4 0.76 1.74 5.23c-0.76 5.88 0.54 6.21 4.9 0.87c1.96 -2.4 3.49 -3.49 3.92 -2.72c2.18 3.38 4.25 1.2 3.59 -3.7c-0.65 -4.58 0.33 -6.43 1.96 -3.81c1.85 2.94 2.94 0.76 2.29 -4.25c-0.76 -5.66 0.98 -11.44 3.05 -10.68c0.65 0.22 1.2 2.29 1.31 4.68c0.11 3.92 0.33 4.25 2.94 4.03c2.51 -0.22 2.94 0.22 2.94 2.94c0 4.79 4.58 5.66 5.99 1.09c0.33 -1.09 2.07 -2.18 3.92 -2.61c2.72 -0.54 3.27 -1.09 2.61 -2.51c-1.63 -4.14 -1.2 -5.23 2.51 -5.56c3.38 -0.33 3.49 -0.54 2.83 -4.14c-0.65 -3.7 -0.65 -3.7 4.36 -3.7c6.21 -0 6.65 2.07 1.09 4.68c-4.14 2.07 -4.47 4.36 -0.65 4.9c2.83 0.44 2.94 1.09 0.76 3.92c-4.03 5.34 -0.22 8.17 5.23 3.92c2.72 -2.18 2.72 -2.18 3.27 0.11c0.87 3.16 3.05 2.18 5.66 -2.61c2.61 -4.79 3.38 -5.01 4.25 -1.31c0.98 3.81 4.68 1.85 7.08 -3.92c2.18 -5.23 3.81 -4.9 4.25 0.76c0.22 3.27 -0.22 4.9 -1.96 6.43c-1.2 1.09 -2.18 2.94 -2.18 4.03c0 1.42 -1.09 2.18 -3.27 2.72c-4.47 0.87 -5.23 2.4 -2.29 4.58c2.83 2.18 1.96 3.38 -2.18 3.38c-1.85 -0 -3.7 -0.87 -4.58 -2.18c-4.25 -6.1 -17.54 -8.39 -20.92 -3.59c-1.53 2.18 -1.42 2.51 1.85 5.01c3.38 2.72 3.38 2.83 1.63 5.56c-1.85 2.83 -1.85 2.83 -5.45 0.65c-7.73 -4.79 -12.42 -1.53 -6.65 4.47c6.1 6.43 0.22 8.5 -8.82 3.16c-8.39 -5.01 -18.3 -4.36 -21.35 1.31c-1.53 2.83 0.11 4.14 5.34 4.14c3.92 -0 4.03 0.22 2.07 3.38c-1.09 1.96 -0.98 2.51 1.2 3.92c2.94 2.07 3.27 5.23 0.54 4.36c-1.09 -0.33 -3.59 -1.2 -5.45 -1.96c-4.47 -1.85 -6.65 -0.33 -4.68 3.27c1.09 2.07 0.87 2.51 -2.18 3.59c-4.9 1.63 -4.14 5.45 1.31 6.75c3.59 0.87 4.03 1.31 3.49 3.59c-0.87 3.27 3.49 3.49 7.52 0.33c3.7 -2.94 4.03 -2.83 4.03 2.07c0 7.3 3.81 7.08 7.95 -0.44c2.94 -5.23 4.36 -5.77 5.99 -2.18c2.4 5.23 6.75 0.98 6.75 -6.65c0 -1.31 0.76 -3.27 1.74 -4.25c2.51 -2.4 3.92 -0.22 2.94 4.79c-0.65 3.7 -0.65 3.7 3.38 2.94c4.25 -0.87 4.58 -0.54 2.61 2.61c-1.74 2.72 -0.98 3.38 5.88 4.25c5.66 0.76 6.1 1.09 4.68 4.58c-0.54 1.42 0.22 1.96 3.49 2.61c5.45 0.98 7.95 2.4 7.95 4.58c0 2.07 -1.53 1.74 -13.94 -2.83c-12.53 -4.68 -15.36 -4.36 -11.98 0.98c1.96 3.16 0.44 3.7 -4.58 1.74c-10.02 -4.03 -17.65 -0.76 -11.11 4.79c3.92 3.27 3.16 4.36 -3.05 4.36c-6.54 -0 -8.61 2.83 -4.14 5.88c2.29 1.63 2.29 1.63 -1.31 5.01c-3.27 3.05 -3.49 3.49 -1.85 5.12c1.31 1.42 2.29 1.53 5.23 0.44c4.79 -1.63 5.34 -1.53 5.34 1.09c0 3.49 4.47 2.18 7.08 -1.96c2.51 -4.03 4.03 -4.03 4.9 -0.22c1.42 5.77 6.54 2.07 8.17 -5.88c0.76 -3.59 2.94 -3.38 3.81 0.44c1.09 4.25 4.58 3.38 6.43 -1.74c2.07 -5.45 2.83 -5.99 6.86 -4.9c4.68 1.42 8.93 -0.54 11.55 -5.34c2.07 -3.59 4.25 -5.56 6.32 -5.56c0.22 -0 0.44 1.31 0.44 2.94c0 2.29 -0.87 3.59 -3.27 4.9c-4.14 2.4 -4.14 3.59 0 5.12c4.36 1.42 4.14 2.94 -0.54 4.47c-6.21 2.07 -8.17 7.63 -2.72 7.63c3.27 -0 4.58 2.29 2.18 3.81c-1.74 1.09 -1.31 8.82 0.54 10.35c1.31 1.09 2.18 0.76 4.58 -2.07c2.94 -3.38 2.94 -3.38 5.56 -0.98c3.27 3.16 4.58 1.42 4.58 -5.99c0 -5.56 0.44 -5.99 3.38 -3.38c4.03 3.7 5.56 -1.53 2.61 -8.61c-1.74 -4.36 -0.76 -5.88 2.61 -4.03c3.38 1.74 3.59 1.42 2.83 -4.25c-0.98 -7.52 -0.11 -9.48 5.23 -11.44c5.77 -2.07 17.1 -3.38 17.1 -1.96c0 1.63 -2.72 3.38 -6.43 4.14c-4.03 0.87 -5.34 2.4 -3.27 3.92c0.87 0.54 1.09 1.2 0.44 1.53c-7.41 3.16 -11.66 6.97 -7.73 6.97c2.18 -0 2.18 1.2 0.11 3.92c-2.29 3.05 -2.07 5.12 0.44 4.47c1.63 -0.33 2.29 0.11 2.51 1.74c0.54 3.81 2.94 3.38 4.79 -0.98c1.2 -2.83 1.96 -3.59 2.61 -2.61c1.31 2.18 3.27 0.22 3.27 -3.27c0 -1.74 0.76 -3.81 1.63 -4.79c0.87 -0.87 1.63 -3.05 1.63 -4.79c0 -5.88 2.18 -8.82 3.7 -5.01c0.33 0.87 -0.22 3.49 -1.31 5.66c-2.51 4.9 -2.07 7.08 2.29 11.77c5.12 5.66 6.97 5.01 7.84 -2.94c0.76 -6.54 0.65 -6.86 -2.61 -9.91c-5.77 -5.45 -4.9 -9.26 4.36 -18.08c18.74 -17.97 34.97 -23.31 53.38 -17.76c3.81 1.2 9.91 2.4 13.51 2.83c8.5 0.98 13.94 3.38 22.44 10.13c3.81 2.94 11.55 7.73 17.1 10.57c30.18 15.36 41.72 43.57 36.17 88.24c-1.63 13.18 -2.72 15.8 -3.81 9.15c-1.09 -6.86 -3.49 -11.87 -7.3 -15.9c-3.05 -3.16 -3.27 -3.7 -2.07 -6.97c3.27 -9.48 -1.2 -18.41 -9.26 -18.41c-10.89 -0 -20.81 11 -14.6 16.12c1.2 1.09 2.4 3.27 2.61 5.01c0.76 4.36 4.79 8.28 8.5 8.28c3.59 -0 3.59 0.11 1.42 4.47c-0.98 1.74 -2.72 6.43 -3.92 10.24c-1.2 3.92 -2.4 7.08 -2.72 7.08c-1.74 -0 -13.83 -6.97 -12.64 -7.3c2.18 -0.76 1.53 -2.29 -4.79 -11.22c-5.23 -7.3 -6.54 -8.5 -8.17 -7.63c-2.94 1.63 -4.25 1.31 -4.25 -0.87c0 -3.7 -1.42 -3.49 -4.47 0.65c-4.03 5.23 -4.25 4.14 3.92 15.47c7.08 9.91 7.08 9.91 4.47 12.31c-1.42 1.31 -5.34 7.08 -8.61 12.75c-8.5 14.49 -10.78 16.89 -20.59 21.79c-10.35 5.23 -18.41 5.99 -13.73 1.31c0.76 -0.76 0.87 -1.31 0.22 -1.31c-0.65 -0 -2.07 0.98 -3.16 2.18c-2.51 2.83 -3.59 2.72 -4.03 -0.11c-0.33 -2.29 -0.87 -2.4 -11 -2.18c-5.88 0.11 -11.33 0.44 -12.09 0.76c-0.87 0.33 -1.74 -0.11 -2.07 -0.98c-0.65 -1.63 -21.13 -1.74 -23.75 -0.22c-0.54 0.44 -1.74 0.11 -2.61 -0.54c-1.09 -0.98 -6.75 -1.2 -20.26 -0.76c-18.63 0.44 -18.63 0.44 -20.92 3.92c-1.63 2.72 -2.72 3.38 -4.47 2.94c-1.31 -0.33 -2.94 -0.65 -3.81 -0.65c-1.2 -0 -1.2 -0.33 -0.11 -1.63c4.25 -5.12 -6.32 -4.36 -12.96 0.98c-1.85 1.42 -10.78 1.85 -11.66 0.54c-0.98 -1.63 -5.66 -1.09 -6.32 0.76c-0.33 0.98 -0.65 3.81 -0.65 6.43c0 4.47 0.11 4.68 3.81 5.34c5.12 0.98 4.79 2.83 -0.44 2.83c-5.66 -0 -7.73 0.87 -7.73 3.38c0 2.29 1.74 2.61 4.36 0.98c1.09 -0.65 2.18 -0.44 3.49 0.76c1.63 1.53 4.03 1.63 16.89 0.98c44.12 -2.07 55.12 -2.07 60.24 -0.11c2.72 1.09 6.86 2.07 9.26 2.18c2.4 -0 5.45 0.76 6.75 1.42c4.68 2.61 12.31 0.65 12.31 -3.05c0 -1.42 2.72 -2.07 16.78 -4.36c7.19 -1.2 16.12 -3.16 19.72 -4.36c13.07 -4.58 23.97 -6.65 38.67 -7.3c12.96 -0.54 15.58 -1.09 22.33 -3.92c22.66 -9.48 23.75 -8.06 2.18 2.94c-12.2 6.21 -12.42 6.32 -25.27 7.19c-15.47 1.2 -19.17 2.18 -29.63 7.95c-4.47 2.4 -10.78 5.23 -14.16 6.32c-4.68 1.42 -5.66 2.07 -4.14 2.72c2.83 1.09 12.09 -1.2 22.11 -5.45c9.15 -3.81 17.32 -5.66 18.3 -4.03c0.33 0.44 -1.42 2.72 -3.92 4.9c-2.4 2.18 -4.25 4.25 -3.92 4.47c0.22 0.33 4.9 -1.42 10.24 -3.81c5.45 -2.4 13.94 -5.01 19.5 -5.99c5.45 -1.09 11.55 -2.72 13.62 -3.81c4.25 -2.18 22.77 -5.99 23.86 -4.9c0.33 0.44 -1.85 3.05 -4.79 5.88c-4.58 4.36 -7.41 5.77 -17.32 9.26c-14.6 5.01 -23.31 9.7 -19.17 10.24c1.42 0.22 4.36 -0.11 6.54 -0.76c2.07 -0.54 9.48 -1.63 16.34 -2.29c20.26 -1.96 25.93 -3.92 39.76 -14.16c16.89 -12.53 20.48 -13.07 31.05 -4.36c11.11 9.26 26.14 15.25 44.99 18.08c6.1 0.87 13.07 2.18 15.58 2.72c2.4 0.65 5.99 0.98 7.95 0.76c3.49 -0.33 3.49 -0.44 -3.81 -4.36c-4.14 -2.18 -11.11 -4.79 -15.58 -5.77c-6.97 -1.63 -8.71 -2.51 -12.64 -6.54c-2.61 -2.72 -7.95 -6.32 -12.85 -8.61c-9.37 -4.47 -12.09 -7.3 -14.38 -15.14c-2.18 -7.41 -1.53 -7.52 2.51 -0.44c3.7 6.54 8.82 10.89 16.34 13.83c6.65 2.61 27.89 8.17 39.11 10.35c4.9 0.98 11.11 2.72 13.83 3.92c6.97 3.05 14.82 5.34 14.82 4.25c0 -0.54 -0.87 -1.2 -1.85 -1.63c-1.09 -0.33 -3.7 -2.07 -5.77 -3.92c-3.81 -3.27 -3.81 -3.27 2.18 -2.61c3.27 0.33 11.11 2.72 17.43 5.12c6.54 2.61 13.73 4.68 16.89 4.79c5.12 0.33 5.23 0.33 2.18 -0.87c-1.74 -0.76 -8.39 -3.92 -14.6 -7.19c-13.4 -6.86 -19.5 -8.5 -35.3 -9.91c-11.98 -1.09 -18.41 -3.16 -31.05 -10.57c-7.52 -4.47 -4.68 -4.14 7.19 0.65c9.91 3.92 12.42 4.47 25.49 5.45c19.17 1.53 25.16 2.61 40.63 7.73c22.77 7.63 49.67 11.87 75.49 11.87c17.76 -0 21.46 -0.76 20.37 -4.47c-0.44 -1.42 -0.22 -2.07 0.98 -2.07c0.98 -0 1.74 0.76 1.74 1.74c0 0.98 0.98 1.96 2.18 2.29c1.42 0.33 2.18 1.53 2.18 3.16c0 2.94 1.2 3.27 4.68 1.31c1.31 -0.76 5.88 -1.63 10.02 -2.07c5.56 -0.44 6.97 -0.87 5.23 -1.53c-4.03 -1.31 -2.83 -2.72 2.4 -2.72c5.01 -0 5.88 -0.76 3.7 -2.94c-2.61 -2.61 11 -3.16 15.36 -0.65c2.83 1.63 4.47 1.96 6.43 1.2c1.63 -0.54 2.94 -0.54 3.27 -0c1.74 2.72 5.23 -0.87 6.86 -6.97c1.74 -6.32 1.74 -6.54 -0.44 -8.93c-1.53 -1.53 -2.72 -2.07 -3.38 -1.42c-0.54 0.54 -1.63 0.76 -2.4 0.54c-0.65 -0.33 -1.96 0.22 -2.72 1.2c-1.63 1.96 -4.36 0.33 -4.36 -2.72c0 -2.61 2.51 -4.68 4.03 -3.16c1.85 1.85 10.57 0.76 11 -1.31c0.44 -2.29 -3.49 -3.38 -7.3 -1.96c-1.96 0.76 -4.68 0.76 -8.93 -0.11c-8.93 -1.96 -10.57 -1.31 -7.52 2.51c2.29 2.83 2.51 2.94 3.81 1.09c1.2 -1.53 1.74 -1.63 2.83 -0.65c2.29 2.18 -0.87 4.9 -4.68 4.14c-2.07 -0.54 -4.03 -0.11 -5.77 0.98c-3.49 2.29 -6.21 2.18 -9.59 -0.44c-3.05 -2.4 -5.12 -2.83 -5.12 -0.98c0 0.98 -2.61 1.09 -9.15 0.65c-8.17 -0.65 -9.26 -0.54 -11 1.42c-2.51 2.83 -3.59 2.72 -4.03 -0.33c-0.33 -2.29 -0.76 -2.4 -7.41 -2.07c-8.93 0.44 -19.61 2.72 -28.43 5.99c-4.58 1.74 -7.73 2.29 -9.15 1.74c-3.27 -1.31 -3.49 -1.2 -6.32 1.85c-3.92 4.25 -12.64 2.94 -31.05 -4.58c-27.13 -11 -32.57 -15.03 -42.16 -31.37c-3.49 -5.99 -7.41 -11.98 -8.82 -13.4c-2.61 -2.61 -2.61 -2.61 4.47 -12.31c8.28 -11.33 7.84 -10.02 4.14 -14.92c-2.83 -3.7 -2.94 -3.7 -3.81 -1.42c-0.65 1.85 -1.42 2.29 -3.49 1.74c-2.29 -0.54 -3.38 0.33 -7.95 6.75c-7.52 10.35 -7.52 10.13 -5.23 11.77c1.74 1.31 1.31 1.74 -5.23 4.9c-4.03 1.85 -7.73 3.05 -8.28 2.72c-0.54 -0.33 -2.07 -4.14 -3.38 -8.39c-1.31 -4.36 -3.05 -8.93 -4.03 -10.35c-2.07 -3.16 -1.2 -4.68 2.51 -3.92c3.27 0.54 7.95 -4.03 8.06 -7.95c0 -1.2 0.98 -3.38 2.18 -4.9c3.05 -3.92 2.72 -6.75 -1.31 -10.57c-9.37 -8.82 -18.3 -7.84 -22.11 2.29c-1.53 3.92 -1.63 5.56 -0.65 8.39c1.74 5.12 1.53 6.1 -1.96 9.26c-3.59 3.16 -5.12 6.43 -7.08 14.82c-1.42 5.77 -1.42 5.77 -2.94 0.87c-2.51 -7.95 -2.18 -48.69 0.44 -57.08c7.41 -23.86 18.19 -36.49 41.07 -47.82c22.44 -11.22 31.37 -12.75 46.52 -7.84c15.36 4.9 18.19 8.06 13.18 14.82c-2.51 3.27 -2.51 3.38 -0.33 5.01c2.18 1.53 2.18 1.63 -0.33 3.38c-9.04 6.43 -11 10.02 -5.56 10.02c1.74 -0 2.07 0.76 2.07 4.9c0 6.43 3.05 5.99 6.65 -0.76c1.2 -2.18 1.31 -2.18 3.7 0.87c2.4 3.05 2.4 3.05 4.47 -0.22c1.09 -1.74 2.07 -3.38 2.29 -3.59c0.22 -0.22 1.2 0.22 2.18 1.09c6.75 5.34 8.39 5.01 9.48 -1.85c0.54 -4.03 0.33 -4.58 -2.18 -5.66c-2.83 -1.31 -2.72 -3.49 0.22 -3.49c2.51 -0 1.74 -1.96 -1.42 -4.03c-1.74 -1.09 -3.27 -2.18 -3.59 -2.61c-0.33 -0.33 -2.18 -1.53 -4.03 -2.51c-3.38 -1.74 -3.59 -1.74 -3.7 0.11c-0.11 1.09 -0.65 0.33 -1.31 -1.63c-1.42 -4.68 -0.65 -5.12 4.36 -2.61c2.29 1.09 5.77 2.4 7.84 2.83c3.59 0.65 17.65 12.53 18.41 15.47c0.22 0.98 -1.31 1.53 -4.79 1.74c-6.21 0.44 -7.3 2.4 -2.72 4.9c4.25 2.51 4.25 3.16 -0.44 4.68c-5.56 1.85 -7.95 7.63 -3.05 7.63c1.53 -0 1.42 0.33 -0.11 2.72c-2.29 3.38 -1.42 5.01 2.4 4.68c2.18 -0.22 2.94 0.22 3.27 1.85c1.09 5.66 4.68 5.56 6.21 -0.22c0.65 -2.83 0.65 -2.83 3.27 -0.33c1.53 1.42 2.94 2.4 3.16 2.07c1.53 -1.74 2.83 -5.66 2.83 -8.5c0 -3.16 0.22 -3.27 3.27 -2.72c3.05 0.65 3.27 0.44 3.27 -2.51c0 -1.74 -1.53 -5.56 -3.38 -8.39c-3.81 -5.56 -3.49 -7.84 0.44 -4.14c1.42 1.31 3.27 2.4 4.25 2.4c0.98 -0 1.96 0.65 2.29 1.53c0.33 0.87 2.07 2.29 3.92 3.16c3.05 1.53 3.38 1.42 5.66 -0.98c3.27 -3.49 4.36 -2.07 3.16 3.92c-1.53 7.41 -1.31 10.57 0.76 12.64c1.74 1.63 1.96 1.63 4.25 -0.98c1.31 -1.53 2.61 -3.38 2.83 -4.14c0.76 -2.18 2.83 -0.11 3.59 3.7c1.53 6.75 6.21 9.59 7.52 4.47c0.76 -2.72 0.76 -2.72 4.58 0.54c2.07 1.85 4.25 3.38 4.9 3.38c1.85 -0 2.51 -3.49 1.31 -6.65c-0.87 -2.4 -0.87 -3.16 0 -3.16c0.76 -0 2.07 -0.54 2.94 -1.09c2.07 -1.31 -2.07 -5.99 -6.1 -6.97c-3.59 -0.98 -3.27 -2.72 0.65 -4.03c6.54 -2.29 2.72 -6.43 -5.88 -6.43c-2.72 -0 -5.23 -0.54 -5.56 -1.09c-0.33 -0.65 -0.33 -1.09 0.22 -1.09c0.44 -0 2.07 -0.98 3.59 -2.07c3.7 -2.94 1.42 -5.56 -4.79 -5.56c-2.51 -0 -5.56 -0.65 -6.75 -1.53c-2.07 -1.63 -2.07 -1.63 0 -3.16c2.72 -1.96 1.53 -3.81 -4.36 -6.43c-6.21 -2.72 -6.1 -4.14 0.22 -4.14c5.34 -0 10.24 3.7 11.87 8.93c0.65 1.74 1.42 2.07 3.81 1.63c1.74 -0.44 3.92 -0 5.34 0.98c1.85 1.31 2.72 1.42 3.92 0.44c0.87 -0.76 2.4 -0.98 3.38 -0.65c1.53 0.54 1.42 1.09 -0.65 4.47c-2.61 4.25 -2.18 5.99 1.63 5.99c1.63 -0 2.83 0.76 3.27 2.18c1.09 3.49 4.58 2.72 5.45 -1.2c0.65 -3.05 0.87 -3.16 2.61 -1.63c4.25 3.81 6.1 -0.22 2.83 -5.88c-2.29 -4.03 -2.07 -4.25 2.29 -2.94c3.38 0.98 4.14 0.98 5.34 -0.65c2.4 -3.38 3.92 -2.18 3.16 2.51c-0.65 4.14 0.65 5.99 2.29 3.27c1.42 -2.29 2.29 -0.98 1.85 2.72c-0.54 4.14 2.4 6.65 4.25 3.7c0.76 -1.2 1.53 -0.76 3.81 2.07c3.59 4.47 4.79 3.59 4.58 -3.16c-0.22 -4.03 -0.87 -5.99 -2.72 -7.73c-2.83 -2.61 -3.38 -5.45 -0.98 -4.58c1.09 0.44 1.74 -0.33 1.96 -2.4c0.54 -4.47 2.72 -4.36 3.49 0.11c1.96 10.24 9.37 14.92 9.37 5.88c0 -3.7 2.72 -4.36 3.81 -0.98c0.87 2.72 4.79 6.54 6.65 6.54c0.76 -0 1.53 -1.31 1.74 -3.05c0.33 -3.05 0.44 -3.05 7.73 -1.63c3.81 0.76 4.14 -3.16 0.54 -6.97c-2.29 -2.4 -2.29 -2.51 -0.22 -4.79c3.05 -3.38 -0.44 -5.77 -6.86 -4.79c-5.34 0.76 -6.1 -0.65 -1.96 -3.38c5.45 -3.49 2.29 -6.21 -5.99 -5.12c-4.36 0.65 -4.36 0.54 -4.36 -2.94c0 -3.27 0.22 -3.49 2.83 -2.83c2.83 0.76 2.94 0.65 2.29 -3.05c-0.87 -5.34 0.44 -5.56 4.68 -1.2c5.23 5.34 9.04 5.34 8.06 -0.11c-0.54 -3.16 -0.44 -3.81 0.76 -3.38c4.79 1.96 9.8 3.16 10.35 2.61c0.44 -0.44 0.11 -2.29 -0.76 -4.25c-1.09 -2.61 -1.09 -3.59 -0.11 -3.92c1.96 -0.65 1.63 -4.58 -0.44 -5.34c-0.98 -0.33 -3.38 -0.11 -5.45 0.54c-4.25 1.31 -5.45 0.33 -3.16 -2.61c2.51 -3.27 1.96 -4.79 -1.63 -4.79c-2.94 -0 -3.16 -0.22 -2.51 -3.27c0.54 -2.94 0.33 -3.27 -2.07 -3.27c-2.61 -0 -10.68 5.01 -12.31 7.52c-1.63 2.72 -2.94 1.09 -2.29 -2.72c0.87 -4.14 -0.65 -7.19 -3.16 -6.32c-0.76 0.33 -1.74 0.11 -2.18 -0.54c-1.42 -2.29 -3.81 -1.09 -6.54 3.16c-2.83 4.58 -6.32 5.77 -7.52 2.51c-0.44 -1.09 0.22 -2.72 1.63 -4.25c4.14 -4.47 2.18 -6.21 -6.1 -5.34c-8.28 0.98 -9.48 -0.87 -3.81 -5.66c1.85 -1.42 3.27 -3.38 3.27 -4.25c0 -2.51 2.07 -1.74 5.12 1.74c4.14 5.01 8.71 3.81 7.19 -1.96c-0.76 -3.05 1.2 -3.81 4.14 -1.42c1.42 1.09 3.49 2.18 4.68 2.4c1.2 0.22 2.51 2.07 3.27 4.25c1.2 3.92 5.01 5.99 5.01 2.72c0 -0.98 0.33 -1.63 0.87 -1.42c0.44 0.22 2.07 1.09 3.7 1.85c3.7 1.85 6.75 0.87 5.99 -2.07c-0.33 -1.2 -0.11 -2.51 0.44 -2.83c1.74 -0.98 1.09 -3.49 -1.09 -4.25c-1.09 -0.33 -3.59 -2.07 -5.45 -3.81c-1.85 -1.85 -4.36 -3.27 -5.45 -3.27c-2.72 -0 -3.27 -0.98 -2.61 -4.68c0.98 -5.23 10.13 -1.63 10.13 4.14c0 1.31 3.38 4.9 4.58 4.9c0.44 -0 0.98 -1.53 1.42 -3.38c0.87 -3.92 1.74 -3.27 4.14 3.38c2.07 5.56 7.73 12.42 9.8 11.66c0.65 -0.22 1.42 -2.29 1.53 -4.68c0.11 -2.29 0.22 -4.68 0.22 -5.23c0.11 -0.44 2.07 0.87 4.47 3.05c5.56 5.01 8.71 5.23 8.71 0.65c0 -3.27 0.11 -3.27 4.36 -2.61c5.88 0.98 7.3 -1.96 2.72 -5.66c-2.72 -2.18 -2.94 -2.72 -1.63 -4.25c2.4 -2.94 -1.42 -5.23 -7.3 -4.47c-5.12 0.65 -7.08 -0.76 -3.59 -2.61c2.51 -1.31 2.94 -5.23 0.54 -6.1c-0.87 -0.33 -4.03 0.22 -7.08 1.2c-3.05 0.98 -5.88 1.53 -6.21 1.2c-1.09 -1.09 1.96 -3.92 4.25 -3.92c1.63 -0 1.96 -0.54 1.42 -2.29c-0.76 -2.18 -0.44 -2.29 3.7 -1.53c5.88 0.98 7.73 -0.22 4.36 -2.83c-2.61 -2.07 -2.61 -2.07 -0.11 -2.07c4.25 -0 7.08 -2.07 5.56 -3.92c-0.98 -1.2 -0.87 -1.96 0.65 -3.7c2.51 -2.72 1.09 -4.68 -2.83 -3.81c-2.72 0.65 -3.16 0.44 -3.16 -1.53c0 -3.59 -4.03 -2.94 -5.99 0.98c-1.96 3.7 -3.81 4.25 -3.81 1.2c0 -4.25 -2.29 -3.38 -4.36 1.42c-1.09 2.72 -2.29 5.01 -2.61 5.01c-0.98 -0 -6.1 -12.42 -5.66 -13.73c0.33 -0.76 2.18 -1.53 4.14 -1.74c5.12 -0.44 5.77 -4.79 0.98 -6.43c-2.51 -0.87 -3.38 -1.85 -3.38 -3.81c0 -3.16 -4.03 -3.59 -8.17 -0.87c-3.05 2.07 -4.9 1.31 -4.14 -1.63c0.44 -1.53 -0.33 -2.61 -2.72 -3.81c-3.16 -1.63 -5.23 -4.68 -4.03 -5.99c0.44 -0.33 3.05 0.76 5.99 2.4c8.93 5.01 11.44 3.81 8.17 -4.03c-0.76 -1.85 -0.54 -1.96 2.29 -1.31c9.91 2.4 11.22 1.96 8.61 -2.94c-1.42 -2.83 -1.42 -2.94 1.42 -3.59c7.84 -1.74 8.28 -2.29 4.14 -5.56c-1.42 -1.09 -2.83 -3.16 -3.27 -4.47c-0.98 -2.83 -1.53 -2.94 -4.47 -0.65c-1.96 1.53 -2.18 1.42 -2.72 -0.87c-0.98 -4.03 -4.03 -3.59 -8.39 1.2c-4.9 5.56 -5.99 5.56 -5.12 0.33c0.54 -3.7 0.33 -4.25 -2.18 -5.45c-3.92 -1.74 -3.49 -3.49 0.76 -3.49c1.96 -0 4.47 -0.65 5.66 -1.42c2.07 -1.63 1.42 -4.03 -1.2 -4.03c-2.07 -0 -1.96 -0.65 0.76 -4.36c4.14 -5.56 1.53 -7.63 -5.99 -4.79c-1.31 0.44 -1.74 -0 -1.74 -1.63c0 -3.59 -3.05 -2.72 -5.56 1.53c-2.72 4.47 -4.25 4.9 -4.25 1.09c0 -5.23 -4.03 -3.49 -5.77 2.4c-2.72 9.15 -5.66 5.56 -3.92 -4.58c0.44 -2.29 -0.11 -2.4 -4.03 -1.2c-1.74 0.54 -2.51 0.22 -2.94 -1.53c-0.87 -3.16 -4.36 -1.31 -6.21 3.27c-1.74 4.14 -2.83 4.14 -3.59 -0c-0.44 -1.96 -1.42 -3.27 -2.4 -3.27c-1.85 -0 -5.66 5.66 -6.65 9.8c-1.31 5.66 -1.53 5.88 -3.05 3.7c-2.18 -2.94 -4.47 -0.54 -6.1 6.1c-0.76 3.16 -1.96 5.45 -2.72 5.45c-2.51 -0 -2.94 -2.18 -1.09 -5.01c2.29 -3.49 1.31 -4.79 -3.38 -4.79c-2.61 -0 -4.47 -0.76 -5.77 -2.29c-1.85 -2.4 -1.85 -2.4 -4.25 0.65c-1.31 1.74 -2.61 2.83 -2.83 2.61c-0.11 -0.22 -1.74 -3.05 -3.49 -6.1c-1.85 -3.27 -3.92 -5.77 -4.9 -5.77c-2.83 -0 -4.47 2.83 -3.7 6.32c0.54 2.72 0.11 3.59 -4.03 6.97c-7.3 5.88 -7.41 5.88 -7.41 1.42c0 -3.92 4.58 -9.48 13.83 -16.56c3.27 -2.51 2.61 -4.9 -0.76 -2.72c-7.08 4.36 -8.82 0.11 -3.49 -8.39c0.11 -0.33 1.63 1.09 3.27 3.16c3.05 3.49 3.16 3.59 5.66 1.85c3.59 -2.51 6.54 -0.76 6.54 4.14c0 3.49 0.22 3.81 3.38 3.81c1.85 -0 4.9 1.2 6.97 2.83c5.56 4.14 7.41 3.27 8.71 -4.36c0.98 -5.45 1.31 -6.1 2.51 -4.68c3.92 4.68 9.37 2.51 6.43 -2.61c-2.18 -3.81 -2.07 -3.81 5.34 -0.87c3.92 1.53 8.06 0.54 6.1 -1.42c-2.29 -2.29 -1.42 -3.81 3.05 -5.12c6.1 -1.85 6.1 -5.23 0 -6.21c-3.7 -0.65 -4.36 -1.09 -3.81 -2.72c1.09 -3.27 -2.4 -3.7 -7.73 -1.2c-4.79 2.4 -4.79 2.4 -4.14 -1.85c1.2 -7.41 -4.47 -6.54 -9.7 1.53c-2.83 4.47 -3.16 4.58 -4.58 1.42c-1.63 -3.59 -3.38 -3.49 -5.56 0.11c-2.61 4.47 -4.36 4.25 -5.23 -0.44c-0.54 -2.83 -1.31 -3.81 -2.83 -3.81c-1.2 -0 -2.18 -0.76 -2.18 -1.63c0 -0.87 0.98 -1.63 2.18 -1.63c1.09 -0 2.51 -0.87 3.05 -1.85c0.98 -1.63 1.53 -1.42 5.56 1.74c5.34 4.25 7.95 3.92 7.08 -0.98c-0.76 -3.81 0.22 -4.14 5.12 -1.63c3.49 1.85 5.23 0.33 3.81 -3.27c-0.76 -2.07 1.2 -2.07 4.79 -0c4.58 2.61 7.84 2.18 6.97 -1.09c-0.54 -2.18 -0.22 -2.72 1.42 -2.72c1.2 -0 3.05 -0.76 4.25 -1.63c2.07 -1.63 2.07 -1.63 0 -3.27c-1.2 -0.87 -3.27 -1.63 -4.68 -1.63c-2.18 -0 -2.29 -0.33 -1.42 -2.72c1.42 -3.59 -1.09 -4.79 -4.9 -2.29c-3.59 2.4 -4.68 2.18 -5.12 -0.76c-0.54 -4.14 -5.23 -3.16 -8.39 1.63c-2.83 4.47 -5.01 5.23 -5.88 2.18c-0.22 -0.98 -0.87 -2.72 -1.31 -3.81c-0.65 -1.63 -0.11 -1.85 4.14 -1.85c5.56 -0 6.86 -1.09 5.12 -4.36c-1.09 -2.07 -0.87 -2.18 4.36 -2.18c9.26 -0 13.07 -3.81 6.54 -6.54c-4.25 -1.74 -4.14 -2.4 1.31 -4.9c5.56 -2.61 6.32 -4.58 2.51 -5.99c-2.72 -1.09 -2.72 -1.09 -1.09 -4.47c2.61 -4.9 1.42 -7.3 -2.29 -4.79c-2.61 1.74 -2.83 1.74 -4.25 -0.11c-1.85 -2.51 -4.47 -0.65 -5.45 4.03c-0.98 4.25 -2.51 4.9 -3.81 1.63c-2.07 -5.45 -5.45 -1.42 -5.45 6.54c0 2.07 -0.44 3.7 -0.98 3.7c-1.63 -0 -4.47 -5.23 -3.81 -6.97c0.54 -1.42 -0.11 -1.74 -2.94 -1.74c-3.59 -0 -3.59 -0 -0.65 -3.05c3.7 -3.81 3.7 -5.66 0.22 -5.66c-2.51 -0 -2.72 -0.44 -2.72 -4.47c0 -5.34 -1.85 -5.34 -4.47 0.11c-1.09 2.18 -2.07 3.16 -2.51 2.4c-0.44 -0.76 -1.53 -1.31 -2.51 -1.31c-1.74 -0 -1.63 2.51 0.22 6.97c0.76 1.63 0.54 1.85 -1.42 1.31c-3.59 -1.2 -3.81 1.2 -0.65 6.65c2.18 3.81 2.51 4.9 1.09 4.36c-2.51 -0.98 -2.29 2.07 0.44 5.45c1.2 1.53 2.18 4.03 2.18 5.66c-0.11 2.83 -0.11 2.83 -3.16 -0.65c-1.74 -1.85 -4.25 -4.03 -5.56 -4.68c-1.85 -0.98 -2.18 -1.85 -1.63 -4.36c0.44 -1.74 0.33 -4.25 0 -5.56c-0.76 -2.07 -0.87 -2.18 -2.83 -0.33c-1.2 0.98 -2.4 1.53 -2.83 1.2c-0.33 -0.44 -0.33 -0.76 0.11 -0.76c0.44 -0 0.22 -0.98 -0.44 -2.18c-2.29 -4.25 -8.71 3.7 -8.71 10.89c0 2.83 -1.53 2.72 -3.59 -0.33c-1.53 -2.29 -1.63 -2.29 -3.81 -0.44c-1.2 1.09 -2.4 3.92 -2.83 6.21c-0.76 5.12 -1.2 5.23 -5.56 1.53c-2.94 -2.4 -3.05 -2.83 -1.31 -3.81c2.72 -1.53 2.29 -4.14 -0.87 -5.56c-4.79 -2.18 -3.16 -3.81 4.47 -4.47c8.39 -0.65 10.35 -1.96 7.63 -5.01c-1.74 -1.96 -1.74 -2.18 1.2 -4.25c3.05 -2.18 3.05 -2.18 0.11 -3.59c-2.4 -0.98 -3.59 -0.98 -6.32 0.11c-3.59 1.53 -6.1 0.54 -3.05 -1.2c1.42 -0.76 1.74 -1.85 1.2 -4.47c-0.65 -3.49 -0.65 -3.49 3.16 -1.09c5.34 3.27 7.84 3.16 6.97 -0.33c-0.65 -2.4 -0.33 -2.72 2.51 -2.72c4.03 -0 6.43 -2.61 4.47 -4.9c-0.76 -0.87 -2.61 -1.63 -4.03 -1.63c-2.4 -0 -2.61 -0.33 -2.07 -2.61c0.87 -3.59 -0.76 -4.36 -4.68 -2.29c-4.36 2.18 -5.56 2.07 -5.56 -0.44c0 -3.49 -1.74 -3.59 -5.45 -0.54c-3.49 2.94 -3.49 2.94 -6.32 0.11c-2.83 -2.83 -2.83 -2.83 0.22 -4.03c1.63 -0.54 4.14 -1.09 5.56 -1.09c5.88 -0 8.06 -3.16 3.7 -5.45c-2.18 -1.2 -2.18 -1.31 0.65 -5.01c4.79 -6.32 1.96 -10.02 -5.12 -6.54c-4.68 2.4 -5.56 2.18 -5.01 -0.87c1.42 -7.19 -5.12 -5.77 -9.37 1.96c-3.27 5.88 -4.47 5.99 -6.32 0.54c-2.07 -6.1 -4.79 -7.84 -7.08 -4.58c-2.07 3.05 -3.16 3.16 -3.92 0.22c-0.54 -1.85 -0.98 -2.07 -2.83 -1.09c-3.38 1.85 -4.47 1.42 -4.47 -1.53c0 -3.49 -1.42 -3.49 -4.36 0.22c-1.74 2.18 -2.51 2.61 -3.49 1.63c-2.83 -2.83 -4.14 -1.42 -4.14 4.68c0 6.43 -0.98 7.41 -3.49 3.59c-1.74 -2.61 -4.14 -1.85 -4.14 1.2c0 3.92 -3.16 5.01 -4.36 1.63c-2.83 -8.06 -4.47 -8.06 -6.43 0.11c-1.42 5.66 -1.63 6.1 -4.14 5.56c-3.59 -0.98 -4.03 0.98 -1.53 8.06c2.51 7.08 1.96 8.71 -1.53 4.9c-4.68 -5.01 -6.54 -2.72 -4.9 6.1c1.09 5.77 0.54 8.06 -2.72 10.78c-2.94 2.51 -4.25 -0.22 -2.07 -4.68c2.29 -4.79 1.42 -7.95 -1.74 -6.21c-3.27 1.74 -4.14 -1.63 -1.2 -4.79c2.4 -2.51 2.94 -5.56 1.31 -6.54c-0.54 -0.44 0.44 -3.27 2.18 -6.43c4.14 -7.52 4.03 -8.39 -0.87 -8.39c-4.14 -0.11 -4.14 -0.11 -1.42 -2.29c1.53 -1.2 4.47 -3.27 6.54 -4.58c4.47 -2.83 5.77 -7.3 2.29 -7.3c-2.07 -0 -2.29 -0.44 -1.63 -4.36c0.65 -3.92 0.44 -4.36 -1.53 -4.36c-1.31 -0 -2.61 0.44 -2.94 1.09c-1.31 2.07 -2.51 1.09 -3.16 -2.72c-0.87 -4.47 -3.38 -5.01 -5.23 -1.09c-1.53 3.38 -2.29 3.38 -6.97 -0.22c-3.81 -2.83 -3.81 -2.83 -0.44 -5.99c4.47 -4.03 4.03 -6.86 -1.09 -6.75c-2.07 -0 -4.68 0.44 -5.66 0.87c-1.63 0.76 -1.96 0.33 -1.96 -2.61c0 -4.68 -3.92 -4.14 -7.41 1.09c-3.27 5.01 -4.14 5.12 -5.45 1.09c-2.18 -6.1 -6.43 -3.16 -8.93 6.21c-1.42 5.45 -2.72 5.99 -3.59 1.42c-0.87 -4.03 -2.07 -4.14 -5.56 -0.44c-2.94 3.27 -5.56 2.61 -4.58 -1.09c0.76 -3.27 -0.76 -5.34 -3.49 -4.58c-1.63 0.54 -2.61 -0.11 -4.47 -3.16c-2.4 -4.25 -4.47 -4.25 -4.47 -0c0 2.72 -2.94 4.58 -4.79 2.72c-0.54 -0.54 -1.96 -1.09 -3.05 -1.09c-1.74 -0 -1.96 -0.54 -1.31 -3.81c0.87 -4.68 -1.42 -6.1 -5.56 -3.38c-3.59 2.4 -3.59 2.4 -3.49 -3.38c0.22 -5.66 -2.4 -7.73 -5.12 -4.14c-1.2 1.74 -1.63 1.53 -3.7 -2.07c-2.29 -3.81 -3.49 -4.68 -4.9 -3.16zm31.92 27.78c3.7 4.25 4.03 5.23 1.2 4.47c-2.72 -0.65 -3.81 1.2 -2.29 4.14c1.53 2.61 0.98 3.49 -1.42 2.51c-2.51 -0.87 -3.27 -4.25 -2.4 -9.8c0.87 -5.77 0.76 -5.77 4.9 -1.31zm-22.44 7.63c0.33 1.42 0.11 2.94 -0.33 3.38c-1.53 1.53 -3.38 -0.22 -3.38 -3.16c0 -3.27 2.83 -3.49 3.7 -0.22zm73.21 1.53c1.74 0.44 3.05 2.51 4.79 7.08c2.4 6.54 2.18 8.61 -0.65 8.61c-0.87 -0 -2.18 1.2 -2.83 2.72c-1.74 3.81 -3.49 2.83 -3.92 -1.96c-0.33 -3.27 -0.76 -3.92 -3.16 -4.25c-4.58 -0.54 -4.47 -3.05 0.11 -3.05c5.01 -0 6.43 -2.72 2.83 -5.45c-3.7 -2.83 -1.96 -5.01 2.83 -3.7zm-63.95 19.17c-0.11 4.9 -1.31 6.32 -3.59 4.58c-1.85 -1.31 -1.96 -1.85 -0.65 -4.25c1.85 -3.38 4.36 -3.59 4.25 -0.33zm141.07 -1.42c1.31 2.07 -0.76 4.47 -3.81 4.47c-3.81 -0 -4.03 -1.42 -0.76 -3.7c2.83 -1.96 3.81 -2.18 4.58 -0.76zm-134.43 6.97c0 3.38 -1.53 6.21 -3.49 6.21c-1.42 -0 -0.98 -7.08 0.44 -8.5c2.18 -2.18 3.05 -1.53 3.05 2.29zm58.61 9.8c0.33 3.05 -1.09 3.81 -4.03 1.96c-0.87 -0.54 -1.2 -1.74 -0.65 -3.27c0.98 -3.38 4.25 -2.51 4.68 1.31zm-29.19 -0c0 0.76 -0.65 2.4 -1.53 3.49c-1.42 1.96 -1.53 1.96 -2.61 -0.22c-0.87 -1.53 -0.87 -2.51 0 -3.38c1.74 -1.74 4.14 -1.63 4.14 0.11zm-57.3 2.51c1.31 3.27 0.65 5.66 -1.96 7.41c-3.59 2.29 -4.9 -0.87 -2.29 -5.88c1.85 -3.59 3.27 -4.14 4.25 -1.53zm148.48 0.65c1.74 1.63 2.51 3.59 2.51 6.54c0 4.9 -1.85 5.45 -3.38 0.98c-0.65 -1.74 -1.85 -3.49 -2.72 -3.81c-1.85 -0.65 -2.07 -6.1 -0.22 -6.1c0.65 -0 2.4 1.09 3.81 2.4zm-56.1 9.48c0.76 2.18 0.44 3.27 -2.61 6.32c-5.12 5.34 -6.1 4.68 -3.38 -2.72c0.33 -0.76 -0.33 -1.31 -1.63 -1.31c-3.7 -0 -3.92 -2.18 -0.65 -5.56c2.83 -3.05 3.05 -3.05 5.12 -1.2c1.2 0.98 2.51 3.05 3.16 4.47zm-105.34 0.33c1.2 1.96 1.96 4.03 1.74 4.68c-0.22 0.54 -0.76 2.51 -1.09 4.25c-1.63 7.41 -4.58 3.81 -5.01 -6.21c-0.44 -7.19 1.09 -8.17 4.36 -2.72zm16.12 2.72c0.76 4.14 0.11 4.79 -3.05 3.38c-3.16 -1.42 -3.38 -2.29 -0.98 -4.58c2.4 -2.51 3.38 -2.18 4.03 1.2zm173.97 1.31c-1.42 2.83 -6.54 6.75 -7.73 5.99c-3.05 -1.85 1.63 -8.06 6.1 -8.06c2.4 -0 2.61 0.33 1.63 2.07zm-303.39 3.05c2.72 4.14 3.59 7.95 1.74 7.95c-0.65 -0 -1.42 -0.54 -1.74 -1.09c-1.2 -1.96 -2.94 -1.09 -2.4 1.2c0.33 1.42 0.11 2.07 -0.65 1.74c-1.63 -0.54 -2.4 -13.83 -0.87 -13.83c0.65 -0 2.4 1.85 3.92 4.03zm263.52 0.54c1.85 2.61 2.4 10.13 0.76 11.11c-1.09 0.76 -2.29 -1.85 -2.29 -5.01c0 -2.83 -2.61 -1.96 -3.05 1.09c-0.54 3.38 -2.4 1.85 -2.4 -1.74c0 -3.05 2.61 -7.84 4.36 -7.84c0.54 -0 1.74 1.09 2.61 2.4zm-282.04 6.32c0 1.09 -0.87 1.53 -2.72 1.31c-3.59 -0.54 -4.14 -1.2 -2.18 -2.51c2.29 -1.42 4.9 -0.76 4.9 1.2zm198.59 0.76c-0.33 1.74 -0.98 3.92 -1.42 5.12c-0.76 1.74 -0.54 1.85 2.51 1.31c1.96 -0.54 3.59 -0.33 4.03 0.44c1.2 1.96 -2.72 5.45 -6.21 5.45c-2.51 -0 -3.05 0.44 -3.05 2.51c0 2.51 -1.85 5.12 -3.49 5.12c-1.42 -0 -0.87 -5.77 0.76 -8.71c0.87 -1.53 1.53 -4.36 1.63 -6.43c0 -3.59 2.51 -7.73 4.68 -7.73c0.54 -0 0.76 1.31 0.54 2.94zm-88.89 -0c1.09 0.98 1.96 3.27 1.96 5.45c0 3.7 -1.74 4.9 -2.83 1.96c-0.76 -1.96 -3.27 -2.18 -4.14 -0.33c-0.54 1.42 0.22 -3.59 1.2 -7.08c0.54 -2.29 1.31 -2.29 3.81 -0zm-43.9 2.94c1.53 1.63 1.42 1.74 -1.96 1.09c-3.38 -0.65 -3.59 -0.54 -2.83 1.63c0.33 1.31 0.22 2.29 -0.44 2.29c-1.63 -0 -5.56 -4.47 -5.56 -6.32c0 -2.18 8.28 -1.09 10.78 1.31zm122.12 0.11c1.42 1.63 0.65 7.08 -0.98 7.08c-0.54 -0 -1.53 -1.42 -2.29 -3.16c-1.96 -4.79 0.33 -7.41 3.27 -3.92zm-106.32 11.98c2.18 3.38 1.53 4.79 -1.09 2.61c-1.74 -1.42 -1.85 -1.31 -1.31 0.87c1.09 4.25 -3.38 1.42 -4.79 -2.94c-1.96 -5.66 3.59 -6.1 7.19 -0.54zm145.32 4.58c-0.33 1.74 -0.98 3.92 -1.42 4.9c-0.65 1.63 -0.33 1.85 2.51 1.31c4.36 -0.87 5.01 0.65 1.85 4.58c-2.51 3.05 -2.51 3.16 -4.79 1.09c-1.96 -1.74 -2.51 -1.85 -4.03 -0.54c-1.63 1.31 -1.74 1.2 -0.98 -1.09c0.44 -1.42 0.87 -4.03 0.98 -5.88c0.11 -1.85 1.31 -4.14 2.72 -5.23c3.38 -2.72 3.7 -2.61 3.16 0.87zm161.33 3.16c-4.79 5.12 -5.88 2.51 -1.31 -2.94c2.51 -2.94 3.16 -3.27 3.38 -1.63c0.22 1.09 -0.65 3.16 -2.07 4.58zm-122.12 1.96c0.76 1.63 2.29 2.83 3.59 2.83c3.16 -0 2.51 1.53 -2.29 5.88c-6.21 5.66 -9.26 4.79 -5.99 -1.63c2.18 -4.14 1.42 -6.86 -1.63 -5.88c-2.51 0.76 -2.94 -1.42 -0.98 -5.01c1.42 -2.72 5.01 -0.87 7.3 3.81zm-48.69 2.18c1.96 5.99 1.96 6.54 0.22 9.48c-2.61 4.36 -3.59 3.92 -3.59 -1.2c0 -3.59 -0.33 -4.36 -2.18 -4.36c-2.61 -0 -2.72 -1.96 -0.54 -7.19c2.18 -5.23 3.7 -4.36 6.1 3.27zm-105.23 2.18c-0.65 1.2 -1.96 2.4 -2.72 2.61c-1.74 0.65 -0.76 -5.77 1.31 -8.28c1.96 -2.29 3.27 2.83 1.42 5.66zm-155.13 -0.98c1.74 0.98 2.94 2.07 2.72 2.61c-0.65 1.09 -8.39 -0.11 -8.28 -1.31c0 -0.44 0 -1.31 0 -1.85c0 -1.53 1.74 -1.31 5.56 0.54zm148.04 3.7c0 4.79 -0.87 5.99 -2.94 4.36c-1.74 -1.53 -1.85 -4.68 -0.22 -7.63c1.63 -3.05 3.16 -1.53 3.16 3.27zm-174.3 1.42c0 0.33 -1.42 0.98 -3.27 1.42c-3.81 0.87 -3.81 0.76 -1.63 4.9c1.96 3.81 0.44 5.23 -3.27 3.27c-3.38 -1.85 -4.36 -4.47 -2.07 -5.77c0.98 -0.54 3.27 -2.4 5.23 -4.03c3.05 -2.83 4.9 -2.72 5.01 0.22zm129.31 0.98c1.31 2.51 1.2 2.61 -1.85 2.94c-4.36 0.44 -4.25 3.27 0.11 6.86c3.38 2.72 3.38 2.83 1.53 5.66c-1.85 2.83 -1.85 2.83 2.07 4.47c3.59 1.53 5.99 5.99 2.51 4.68c-0.87 -0.33 -2.18 -0.11 -2.94 0.33c-1.2 0.76 -2.72 -1.2 -6.21 -7.41c-5.45 -9.8 -5.88 -13.4 -1.96 -15.9c1.53 -0.98 2.72 -2.51 2.72 -3.49c0 -2.4 2.51 -1.31 4.03 1.85zm258.51 2.07c-2.83 3.92 -6.32 6.1 -7.84 4.58c-1.42 -1.42 4.9 -7.84 7.84 -7.84c2.29 -0 2.29 -0 0 3.27zm-42.49 -1.31c0 0.54 -1.2 1.96 -2.72 3.27c-1.53 1.31 -2.72 3.16 -2.72 4.03c0 0.87 -0.98 1.63 -2.18 1.63c-2.61 -0 -2.07 -4.47 0.87 -7.95c1.63 -1.85 6.75 -2.61 6.75 -0.98zm-159.37 1.96c0.54 1.74 -7.52 4.9 -8.93 3.49c-0.76 -0.65 -0.22 -1.74 1.53 -3.16c2.72 -2.29 6.75 -2.4 7.41 -0.33zm-81.59 3.49c1.31 3.7 -0.33 9.26 -1.96 6.75c-1.74 -2.72 -1.2 -9.8 0.65 -9.8c0.11 -0 0.65 1.31 1.31 3.05zm287.81 2.18c0 1.09 -8.82 6.75 -10.57 6.75c-2.61 -0 -1.42 -3.05 2.18 -5.34c3.49 -2.18 8.39 -3.05 8.39 -1.42zm-276.92 5.56c4.79 5.66 6.75 9.59 6.75 13.4c0 3.38 -2.83 0.65 -6.1 -5.88c-2.94 -5.88 -3.59 -6.21 -6.43 -3.05c-2.61 2.94 -3.81 2.72 -3.81 -0.65c0 -2.72 3.05 -9.15 4.47 -9.15c0.33 -0 2.72 2.4 5.12 5.34zm107.85 -1.74c0.44 2.07 -1.63 2.4 -4.14 0.76c-1.42 -0.98 -1.42 -1.2 0 -2.18c2.07 -1.42 3.7 -0.87 4.14 1.42zm-126.26 0.11c3.38 1.85 7.3 8.61 5.34 9.26c-0.65 0.22 -2.18 -0.87 -3.27 -2.51c-1.2 -1.53 -3.16 -2.83 -4.25 -2.83c-4.9 -0 -8.39 -3.7 -4.47 -4.68c3.16 -0.87 3.49 -0.76 6.65 0.76zm322.56 1.31c0 1.96 -6.32 8.61 -7.3 7.73c-0.33 -0.44 0.22 -1.96 1.2 -3.49c1.74 -2.72 1.74 -2.72 -2.29 -2.72c-3.92 -0.11 -4.03 -0.22 -2.07 -1.63c3.05 -2.29 10.46 -2.18 10.46 0.11zm-197.39 6.97c4.03 2.51 3.7 4.36 -0.65 4.25c-1.96 -0 -3.81 -1.09 -5.45 -3.27c-2.61 -3.16 -2.61 -3.16 0 -3.16c1.42 -0 4.14 0.98 6.1 2.18zm-174.3 2.94c3.16 3.16 3.16 3.05 -3.49 5.12c-2.72 0.87 -0.44 3.59 4.03 4.79c4.58 1.2 5.12 3.49 0.98 3.49c-1.85 -0 -4.03 0.33 -5.01 0.65c-2.07 0.76 -2.29 3.7 -0.33 3.7c1.31 0.11 -2.29 3.27 -3.7 3.27c-0.44 -0 -1.85 -0.98 -3.27 -2.07c-2.61 -2.07 -2.61 -2.07 0.44 -4.47c3.81 -3.05 3.7 -3.59 -0.87 -5.77c-5.56 -2.61 -4.47 -5.12 2.29 -5.12c2.61 -0 2.61 -0.11 1.09 -2.4c-2.51 -3.49 -2.18 -4.14 1.53 -4.14c2.18 -0 4.36 0.98 6.32 2.94zm-82.14 7.73c1.09 1.74 -0.65 5.66 -2.51 5.66c-4.14 -0.11 -5.12 -2.07 -2.29 -4.36c3.05 -2.4 3.92 -2.61 4.79 -1.31zm441.85 0.65c0 1.63 -7.52 5.12 -9.04 4.25c-0.54 -0.33 0.22 -1.74 1.53 -3.16c2.72 -2.83 7.52 -3.59 7.52 -1.09zm-85.62 2.61c1.2 -1.63 1.63 -1.74 3.38 -0.44c1.96 1.42 1.96 1.85 0.22 11.66c-0.98 5.66 -2.07 12.64 -2.4 15.69c-1.09 8.39 -1.74 10.35 -3.49 10.35c-1.31 -0 -1.53 -0.87 -0.98 -3.7c0.54 -2.61 0.22 -4.03 -0.98 -5.01c-1.53 -1.31 -1.31 -1.74 1.63 -4.58c3.81 -3.38 3.59 -4.79 -0.98 -5.77c-4.68 -0.98 -5.23 -6.21 -0.98 -8.71c3.7 -2.07 3.49 -3.81 -0.54 -5.77c-4.9 -2.4 -11.22 -0.54 -15.03 4.25c-1.85 2.4 -3.81 4.25 -4.25 4.25c-1.31 -0 -2.51 -6.54 -1.96 -9.91c0.44 -2.61 0.44 -2.61 1.96 0.33c1.85 3.81 2.83 3.81 3.7 0.33c0.65 -2.51 1.09 -2.72 4.25 -2.18c2.4 0.44 4.47 -0 6.75 -1.42c3.27 -2.07 3.27 -2.07 5.77 0.22c2.4 2.18 2.61 2.18 3.92 0.44zm-131.81 7.73c-0.76 4.9 -1.96 5.66 -3.81 2.18c-0.98 -1.85 -0.76 -2.72 1.31 -4.9c3.05 -3.27 3.38 -2.94 2.51 2.72zm221.58 -4.14c3.92 1.31 3.7 3.16 -0.44 3.16c-2.83 -0 -3.38 0.98 -1.31 3.05c0.65 0.65 0.98 1.53 0.65 1.96c-1.2 1.2 -4.68 -0.65 -7.19 -3.92c-2.51 -3.16 -2.51 -3.16 1.09 -4.25c1.96 -0.54 3.59 -1.09 3.7 -1.09c0.11 -0.11 1.63 0.44 3.49 1.09zm-214.93 6.43c0.44 0.65 1.63 0.87 2.83 0.54c1.74 -0.54 2.07 -0.11 2.07 2.61c0 1.85 -0.54 3.38 -1.2 3.38c-0.76 -0 -1.09 1.31 -0.76 3.27c0.54 3.92 -1.31 4.36 -4.58 1.09c-3.05 -3.05 -3.05 -11.98 0.11 -11.98c0.44 -0 1.2 0.54 1.53 1.09zm-29.96 2.18c0 1.74 0.76 2.18 3.27 2.18c3.05 -0 3.27 0.33 3.27 3.92c0 3.27 -0.33 3.81 -1.85 3.16c-6.43 -2.4 -8.17 -2.07 -7.73 1.53c0.11 1.85 -0.22 3.81 -0.87 4.25c-1.74 1.09 -3.7 5.23 -2.94 6.1c0.33 0.33 1.85 0.65 3.27 0.65c3.16 -0 3.16 0.65 -0.54 5.88c-6.21 8.93 -6.43 8.06 -3.92 -15.69c0.98 -8.93 8.06 -19.5 8.06 -11.98zm19.06 5.12c3.05 4.58 3.38 6.1 1.31 7.73c-1.74 1.53 -3.27 0.54 -6.1 -4.14c-4.68 -7.84 -0.44 -11.11 4.79 -3.59zm23.2 -0.22c0.11 1.2 -0.22 2.94 -0.87 3.81c-1.42 2.29 -6.1 -2.18 -5.01 -4.9c0.98 -2.51 5.45 -1.74 5.88 1.09zm126.91 1.85c-2.4 4.14 -4.68 5.12 -4.68 2.07c0 -2.07 3.7 -5.56 5.77 -5.56c0.54 -0 0.11 1.53 -1.09 3.49zm13.29 0.44c-3.7 5.56 -3.49 6.97 1.09 6.97c3.92 -0 5.12 1.42 2.07 2.61c-0.98 0.33 -3.38 0.65 -5.45 0.65c-6.86 -0 -10.68 3.49 -5.34 4.79c1.53 0.44 2.72 1.2 2.72 1.85c0 0.76 -1.09 0.98 -2.83 0.54c-1.85 -0.54 -3.59 -0 -5.56 1.53c-5.12 3.92 -6.75 2.94 -4.03 -2.4c5.23 -10.13 14.05 -20.48 17.54 -20.48c2.4 -0 2.4 -0 -0.22 3.92zm-105.23 -0.22c0.87 0.98 1.09 3.05 0.65 5.34c-0.87 4.25 -4.25 4.47 -7.73 0.65c-1.74 -1.96 -1.74 -2.07 0.44 -2.07c1.63 -0 2.61 -0.87 3.05 -2.72c0.76 -3.05 1.74 -3.38 3.59 -1.2zm-95.21 7.95c-0.44 4.14 -0.98 7.63 -1.31 7.95c-1.09 1.09 -4.68 -4.68 -4.68 -7.52c0 -1.63 -0.54 -3.49 -1.31 -4.25c-0.98 -0.98 -0.87 -1.31 0.33 -1.74c0.87 -0.22 2.29 -0.76 3.16 -0.98c4.36 -1.53 4.68 -1.09 3.81 6.54zm279.09 -5.66c0.22 0.65 -0.65 1.74 -1.85 2.51c-1.96 1.2 -2.18 1.09 -2.18 -1.53c0 -2.72 3.16 -3.59 4.03 -0.98zm-400.67 1.63c3.59 -0 3.7 0.11 2.72 2.61c-0.44 1.2 -1.2 1.42 -2.61 0.65c-1.42 -0.76 -2.51 -0.33 -4.36 1.63c-4.14 4.36 -6.86 1.63 -4.25 -4.25c1.09 -2.18 1.63 -2.51 3.27 -1.74c1.09 0.65 3.38 1.09 5.23 1.09zm94.99 0.11c0.76 1.63 0.87 2.61 0 3.49c-1.53 1.53 -4.47 -0.98 -4.47 -3.7c0 -2.83 2.94 -2.61 4.47 0.22zm140.42 1.96c0 0.54 -0.54 2.4 -1.09 3.92c-1.42 3.7 -0.44 5.23 2.29 3.7c3.16 -1.63 3.05 -1.85 4.79 14.38c1.96 17.32 1.74 18.85 -2.72 14.6c-3.16 -3.05 -3.16 -3.05 -0.98 -7.3c2.94 -5.66 2.07 -8.39 -1.74 -5.88c-4.68 3.05 -5.01 2.4 -4.79 -8.39c0.22 -12.75 0.76 -16.01 2.72 -16.01c0.87 -0 1.53 0.44 1.53 0.98zm-26.8 5.66c1.74 3.7 1.74 4.68 0.54 5.45c-2.29 1.42 -5.77 1.2 -8.06 -0.54c-2.07 -1.53 -2.07 -1.63 0.87 -4.36c1.63 -1.53 2.94 -3.27 2.94 -3.92c0 -2.4 1.74 -0.87 3.7 3.38zm145.54 1.53c0 3.27 -0.54 4.03 -5.01 6.65c-3.38 2.07 -5.34 2.51 -6.1 1.74c-1.63 -1.63 0 -3.59 2.61 -3.27c2.4 0.33 3.59 -1.2 4.68 -5.99c0.87 -4.36 3.81 -3.81 3.81 0.87zm-247.72 -0.33c3.7 2.51 8.5 9.8 7.84 11.77c-0.65 2.07 -10.46 -5.12 -10.89 -7.84c-0.22 -1.85 -0.98 -2.4 -2.83 -2.29c-1.42 0.22 -2.4 -0.33 -2.4 -1.09c0 -3.7 3.38 -3.81 8.28 -0.54zm258.61 2.51c0 0.87 -1.2 2.4 -2.72 3.38c-2.61 1.74 -2.72 1.96 -0.98 3.81c2.94 3.27 1.2 5.77 -3.49 5.01c-5.23 -0.87 -5.56 -1.42 -2.51 -3.81c2.51 -2.07 2.51 -2.07 0.11 -2.83c-3.38 -1.09 -2.94 -2.29 1.74 -4.79c4.9 -2.72 7.84 -2.94 7.84 -0.76zm-340.21 1.63c-0.22 3.59 -3.38 5.88 -6.1 4.36c-3.05 -1.63 -2.83 -2.83 0.76 -4.79c4.03 -2.29 5.56 -2.18 5.34 0.44zm38.45 5.12c0 1.42 -0.54 2.51 -1.09 2.51c-1.74 -0 -3.7 -5.01 -2.83 -7.3c0.76 -1.85 0.87 -1.85 2.4 0.11c0.87 1.2 1.53 3.27 1.53 4.68zm191.07 -1.96c0.33 0.44 -0.65 2.07 -2.18 3.49c-3.05 2.83 -4.79 1.74 -4.79 -3.05c0 -3.59 4.9 -3.92 6.97 -0.44zm9.37 -0.54c0 0.87 -0.44 2.83 -1.09 4.47c-1.31 3.49 0.98 4.79 5.01 2.72c3.59 -1.96 4.36 -0.76 1.96 3.05c-1.63 2.94 -2.18 3.16 -4.9 2.18c-3.05 -1.09 -7.08 0.22 -8.82 2.83c-1.53 2.18 -0.87 2.83 2.72 2.83c5.12 -0 8.28 2.4 6.21 4.9c-1.31 1.63 -1.53 1.63 -2.4 0.11c-1.96 -3.49 -5.23 -2.07 -5.23 2.07c0 7.3 -3.05 4.25 -5.45 -5.66c-1.42 -5.56 -1.42 -5.56 4.47 -13.29c5.88 -7.73 7.52 -9.04 7.52 -6.21zm-210.14 0.65c1.09 0.65 2.07 2.18 2.07 3.38c0 1.96 -0.11 2.07 -2.72 0.33c-4.25 -2.72 -3.7 -5.99 0.65 -3.7zm443.15 1.2c4.03 1.42 4.14 2.18 0.65 6.1c-2.4 2.83 -2.61 2.83 -2.72 0.76c0 -1.2 -0.76 -3.16 -1.63 -4.36c-2.94 -3.92 -2.07 -4.47 3.7 -2.51zm-399.58 6.43c6.54 3.38 9.04 11.33 3.27 10.24c-3.59 -0.76 -9.91 2.29 -9.91 4.68c0 0.87 1.53 1.74 3.27 2.18c5.23 0.98 3.81 3.92 -2.4 5.01c-4.58 0.87 -5.56 0.65 -8.28 -1.53c-5.01 -4.14 -7.19 -7.52 -5.77 -8.93c0.65 -0.65 1.2 -2.07 1.2 -3.16c0 -2.72 4.03 -2.51 4.9 0.22c0.76 2.51 1.85 2.72 5.23 0.98c3.38 -1.85 3.81 -2.94 2.94 -7.08c-1.2 -5.45 -0.65 -5.77 5.56 -2.61zm391.84 -1.53c2.51 0.76 2.51 0.76 0.11 3.27c-4.14 4.36 -11.87 2.51 -7.84 -1.96c1.85 -2.07 3.59 -2.4 7.73 -1.31zm-266.89 5.01c0.33 2.29 -0.22 2.94 -2.18 3.27c-1.85 0.22 -2.4 0.98 -2.29 2.83c0.22 2.07 -0.22 2.4 -3.27 2.4c-7.41 -0 -7.3 -1.96 0.33 -8.06c5.56 -4.36 6.97 -4.36 7.41 -0.44zm-159.7 2.72c1.09 0.98 1.96 2.29 1.96 2.94c0 0.65 0.98 3.16 2.29 5.45c2.72 5.23 2.4 5.56 -4.58 4.03c-10.68 -2.29 -17.76 -8.71 -8.06 -7.3c5.12 0.87 5.34 0.65 4.9 -4.58c-0.22 -2.83 0.76 -3.05 3.49 -0.54zm258.61 1.63c0.33 1.42 2.18 3.81 4.03 5.34c3.38 2.83 3.38 2.83 -5.01 11.87c-4.58 5.01 -8.39 9.48 -8.39 10.02c0 0.44 -1.53 0.87 -3.38 0.87c-4.47 -0 -3.59 -2.61 0.98 -3.05c3.92 -0.44 4.47 -1.74 1.31 -3.49c-2.72 -1.42 -1.63 -4.36 1.53 -4.36c3.27 -0 4.25 -1.09 2.72 -2.94c-0.98 -1.09 -0.76 -1.96 0.76 -3.7c2.83 -3.16 -0.11 -5.34 -6.21 -4.58c-4.03 0.54 -4.25 0.44 -4.25 -2.29c0 -2.51 0.44 -2.83 4.14 -2.83c2.18 -0.11 5.23 -0.76 6.75 -1.63c3.7 -2.07 4.14 -2.07 5.01 0.76zm93.03 2.61c-1.31 3.27 -2.83 4.79 -5.34 4.79c-2.18 -0 -0.54 -5.56 2.29 -7.95c3.05 -2.51 4.58 -0.98 3.05 3.16zm-418.97 -0.76c1.74 1.96 1.74 2.07 -1.42 3.16c-1.85 0.65 -3.38 1.63 -3.38 2.29c0 0.98 5.12 2.61 7.19 2.18c5.12 -0.87 4.68 1.63 -0.65 3.81c-4.58 1.85 -5.12 2.72 -3.16 4.68c1.74 1.74 -2.61 3.81 -6.1 2.94c-3.27 -0.87 -3.38 -1.53 -0.44 -5.23c2.83 -3.59 2.18 -4.47 -4.14 -6.1c-5.23 -1.31 -5.23 -1.31 -2.51 -2.72c1.53 -0.87 3.92 -1.53 5.34 -1.63c1.85 -0 2.4 -0.44 1.85 -1.74c-1.53 -4.03 4.14 -5.23 7.41 -1.63zm-66.89 -0.54c0 1.96 -2.72 7.19 -4.03 7.63c-3.92 1.53 -4.68 -1.85 -1.2 -5.56c1.96 -2.07 5.23 -3.49 5.23 -2.07zm559.61 6.32c3.16 2.94 3.16 3.92 0.11 5.12c-1.85 0.65 -3.27 0.33 -5.12 -1.09c-1.42 -1.2 -3.27 -2.07 -4.03 -2.07c-0.76 -0 -1.74 -0.54 -2.07 -1.09c-2.4 -3.81 7.19 -4.58 11.11 -0.87zm-126.37 2.18c3.16 3.05 3.16 4.14 -0.22 4.14c-5.88 -0 -10.89 -4.58 -6.21 -5.77c3.38 -0.87 3.81 -0.76 6.43 1.63zm-309.71 1.85c0.54 0.87 -4.9 2.51 -5.66 1.74c-0.22 -0.22 -0.11 -1.42 0.33 -2.61c0.65 -2.29 3.7 -1.74 5.34 0.87zm411.34 5.45c0 1.63 -0.98 4.36 -2.29 5.99c-2.61 3.38 -4.9 3.92 -3.16 0.76c1.63 -3.27 1.31 -3.59 -1.63 -1.63c-5.34 3.49 -2.83 -2.61 2.72 -6.43c3.7 -2.51 4.36 -2.4 4.36 1.31zm-112.1 -0.22c4.9 2.29 5.23 3.16 1.74 4.03c-4.58 1.09 -8.06 4.79 -9.48 9.8c-1.96 7.08 -3.81 8.28 -5.45 3.49c-1.74 -5.34 -1.09 -8.71 1.74 -9.15c3.92 -0.54 6.65 -4.25 5.01 -6.75c-2.4 -3.92 -0.22 -4.47 6.43 -1.42zm-276.26 3.59c6.21 3.05 7.08 5.01 3.92 8.82c-2.29 2.61 -2.29 2.61 -4.36 -0c-2.4 -3.16 -5.12 -2.51 -6.65 1.53c-1.2 3.05 -2.4 3.38 -4.36 1.2c-0.65 -0.87 -2.07 -1.31 -2.94 -0.98c-1.42 0.54 -1.63 0.22 -0.98 -1.96c2.18 -6.97 2.07 -7.41 -1.09 -8.17c-2.18 -0.54 -4.14 -0.11 -7.08 1.53c-5.12 2.94 -7.08 3.05 -8.61 0.11c-1.53 -2.72 -1.53 -2.61 3.27 -4.14c6.97 -2.07 22.77 -0.98 28.87 2.07zm256.76 3.92c-1.2 3.59 -1.31 5.56 -0.54 6.86c0.87 1.31 0.65 2.83 -0.98 5.88c-1.96 3.81 -4.14 4.58 -4.14 1.31c0 -0.76 -0.65 -1.63 -1.53 -1.96c-2.94 -1.2 4.68 -17.1 8.06 -17.1c0.44 -0 0 2.29 -0.87 5.01zm-325.28 -2.83c0.76 0.76 2.18 0.76 4.47 -0c2.61 -0.98 4.25 -0.87 7.41 0.44c4.03 1.74 4.36 3.92 0.44 3.92c-2.51 -0 -2.61 1.96 -0.33 5.23c2.83 4.14 -2.07 3.05 -6.21 -1.42c-4.25 -4.47 -5.66 -4.68 -9.15 -1.2c-2.51 2.51 -2.72 2.51 -3.27 0.54c-1.42 -4.14 3.92 -10.24 6.65 -7.52zm-63.84 2.4c2.4 2.61 4.03 7.08 2.94 8.17c-1.09 1.09 -7.3 -5.99 -7.3 -8.28c0 -2.94 1.53 -2.94 4.36 0.11zm254.37 -0.11c0.44 0.65 -0.22 2.18 -1.42 3.49c-1.2 1.31 -2.94 3.81 -3.81 5.66c-1.74 3.27 -1.74 3.27 -1.2 -2.18c0.33 -3.05 0.76 -6.1 1.09 -6.86c0.44 -1.63 4.36 -1.74 5.34 -0.11zm166.67 0.98c0 0.87 -1.2 1.74 -2.72 1.96c-1.53 0.22 -3.16 0.76 -3.7 1.31c-2.61 2.51 -5.12 -1.63 -2.61 -4.14c1.96 -1.96 9.04 -1.2 9.04 0.87zm-427.14 4.58c1.63 2.4 2.4 6.32 1.2 6.32c-3.49 -0 -10.13 -6.43 -8.5 -8.06c1.53 -1.53 5.77 -0.54 7.3 1.74zm249.57 -0.11c0.98 1.42 -1.42 10.46 -3.7 13.94c-1.53 2.29 -1.63 2.4 -2.29 0.54c-2.18 -6.21 -2.18 -7.84 0.11 -8.39c1.63 -0.44 2.18 -1.2 1.63 -2.51c-1.2 -3.05 2.61 -6.32 4.25 -3.59zm254.04 5.01c-4.47 6.97 -10.24 11.44 -12.75 9.91c-2.07 -1.31 -4.14 -0.98 -13.29 2.07c-3.05 0.98 -2.4 -1.96 1.2 -5.99c3.49 -3.81 4.47 -4.14 6.32 -2.29c0.65 0.65 2.83 0.98 4.79 0.76c3.27 -0.33 3.81 -0.87 4.9 -4.68c1.09 -4.03 1.42 -4.36 4.47 -4.03c1.85 0.22 3.7 -0.22 4.14 -0.87c0.54 -0.87 1.2 -0.87 1.85 -0.22c0.65 0.65 0.11 2.51 -1.63 5.34zm61.11 -0.76c1.42 1.85 3.49 3.27 4.9 3.27c1.31 0.11 4.9 2.29 7.84 4.9c5.45 4.79 5.45 4.9 3.81 7.84c-1.74 2.94 -1.96 3.05 -11.22 3.05c-10.35 -0 -10.78 -0.22 -6.65 -4.36c4.68 -4.68 3.16 -6.54 -5.01 -6.54c-7.08 -0 -7.08 -0 -6.75 -3.16c0.33 -3.27 0.11 -3.27 -6.21 -1.63c-3.05 0.76 -2.61 -3.27 0.44 -4.68c2.51 -1.09 3.59 -0.87 7.73 1.42c5.01 2.72 7.84 1.74 6.43 -2.07c-0.98 -2.61 2.4 -1.31 4.68 1.96zm-293.91 7.73c-2.94 10.24 -19.94 31.48 -25.16 31.48c-0.54 -0 -0.65 -4.79 -0.22 -10.68c0.76 -12.64 1.85 -14.49 7.19 -12.31c6.32 2.51 7.3 2.61 7.84 0.76c0.33 -0.98 0.87 -2.61 1.31 -3.7c0.33 -0.98 0.54 -2.51 0.44 -3.27c-0.11 -0.65 0.44 -1.31 1.31 -1.31c0.76 -0 2.4 -0.65 3.49 -1.53c1.96 -1.42 1.96 -1.63 0.22 -4.25c-3.05 -4.68 -2.07 -5.88 1.31 -1.85c2.51 3.05 2.94 4.36 2.29 6.65zm-41.72 -7.95c0.65 0.44 1.74 2.18 2.4 3.81c0.98 2.61 0.87 2.94 -0.98 2.94c-2.18 -0 -4.36 -2.94 -4.36 -5.88c0 -1.85 0.87 -2.18 2.94 -0.87zm285.52 -0c0.98 0.76 0.87 1.42 -0.87 2.94c-1.2 1.09 -2.18 2.61 -2.18 3.38c0 1.53 -5.01 3.38 -6.1 2.29c-0.33 -0.33 0.44 -2.51 1.74 -5.01c2.18 -4.36 4.36 -5.45 7.41 -3.59zm-308.07 2.94c3.92 1.96 3.92 2.07 0.98 5.01c-2.72 2.72 -2.29 5.77 0.98 6.21c1.31 0.22 2.4 0.76 2.4 1.2c0 1.63 -4.25 4.68 -5.77 4.14c-2.29 -0.87 -4.47 -18.19 -2.29 -18.19c0.33 -0 1.96 0.76 3.7 1.63zm-207.63 2.29c2.4 0.87 2.18 2.61 -0.33 2.61c-2.72 -0 -5.12 2.72 -3.27 3.81c1.63 1.09 -0.87 2.72 -4.14 2.72c-3.49 -0 -3.16 -2.72 0.65 -6.65c3.38 -3.27 4.25 -3.59 7.08 -2.51zm289.55 5.66c-0.44 4.47 1.74 5.45 7.63 3.16c4.36 -1.74 4.36 -1.74 3.59 2.29c-1.09 6.1 -3.59 11.33 -5.12 10.89c-1.74 -0.54 -9.15 -12.31 -10.13 -16.01c-0.44 -1.63 -0.11 -2.94 0.76 -3.49c2.4 -1.63 3.59 -0.44 3.27 3.16zm167.54 -1.09c0 1.53 -2.61 3.49 -4.58 3.49c-2.94 -0 -3.81 -3.27 -1.42 -5.01c1.96 -1.42 5.99 -0.33 5.99 1.53zm-111.77 -0.33c-0.11 0.54 -1.42 1.96 -2.94 3.16c-4.47 3.27 -9.7 0.22 -5.99 -3.49c1.63 -1.63 9.15 -1.31 8.93 0.33zm179.09 5.01c4.36 1.42 6.97 5.34 3.49 5.34c-2.61 -0 -2.72 0.87 -0.54 3.38c1.63 1.63 1.53 1.85 -1.09 2.51c-3.49 0.87 -5.45 -0.33 -5.45 -3.16c0 -1.53 -0.87 -2.29 -2.72 -2.51c-1.53 -0.22 -3.38 -0.87 -4.03 -1.53c-2.83 -2.4 -5.01 -0 -4.25 4.58c0.87 5.34 -1.63 5.99 -6.75 1.63c-1.74 -1.42 -4.47 -3.16 -6.1 -3.7c-4.58 -1.85 -3.38 -3.16 5.12 -5.66c4.25 -1.2 8.39 -2.4 8.93 -2.72c1.53 -0.54 9.15 0.54 13.4 1.85zm-444.35 0.54c-1.2 1.53 -1.09 1.96 0.65 3.27c2.72 1.96 1.42 3.05 -3.49 2.83c-6.75 -0.22 -7.3 -4.25 -0.87 -6.75c3.92 -1.63 5.45 -1.31 3.7 0.65zm-29.63 2.83c1.85 1.53 0.98 2.72 -2.4 3.27c-2.61 0.54 -7.08 -3.05 -7.08 -5.77c0 -0.98 7.63 0.98 9.48 2.51zm291.19 -1.53c0 1.42 -3.27 5.66 -4.47 5.66c-1.53 -0 -1.2 -2.4 0.87 -4.58c1.85 -2.07 3.59 -2.61 3.59 -1.09zm102.07 0.87c0.33 0.98 0.65 3.05 0.76 4.58c0.11 2.07 0.87 3.05 2.83 3.49c2.4 0.54 1.85 1.09 -5.12 5.12c-6.21 3.59 -7.95 4.14 -8.39 2.83c-1.09 -2.72 -0.76 -3.59 1.42 -3.59c1.31 -0 2.94 -1.63 4.36 -4.36c2.29 -4.36 2.29 -4.36 0.11 -5.66c-1.2 -0.76 -2.18 -1.96 -2.18 -2.72c0 -2.07 5.45 -1.74 6.21 0.33zm-207.96 8.5c0.22 4.25 -0.22 8.06 -0.87 8.71c-1.85 1.85 -4.47 -1.74 -5.12 -7.08c-0.33 -2.61 -1.09 -5.45 -1.74 -6.21c-1.53 -1.96 0.98 -3.59 4.68 -3.27c2.61 0.33 2.72 0.76 3.05 7.84zm48.48 5.77c6.1 12.96 11.55 29.09 10.13 30.5c-0.33 0.44 -2.07 0.22 -3.7 -0.33c-2.61 -0.87 -2.94 -1.53 -2.61 -5.01c0.44 -4.79 -1.42 -8.71 -3.92 -8.28c-0.98 0.22 -2.72 -0.76 -3.81 -2.07c-2.29 -2.94 -4.58 -3.27 -5.56 -0.87c-0.54 1.42 -0.98 1.42 -2.94 0.33c-1.85 -1.09 -2.51 -1.09 -2.83 -0.11c-0.33 0.76 -1.63 1.42 -2.94 1.42c-1.31 -0 -2.94 0.54 -3.7 1.31c-1.74 1.74 1.42 5.23 4.9 5.23c2.61 -0 3.38 1.53 1.42 2.72c-2.18 1.31 -1.2 4.03 1.42 3.7c2.94 -0.44 5.12 0.76 5.12 2.94c0 1.31 -0.98 1.53 -4.79 0.98c-5.12 -0.76 -7.19 0.44 -4.47 2.72c2.18 1.85 0.98 3.27 -2.72 3.27c-3.7 -0 -5.12 1.63 -3.27 3.81c1.09 1.31 0.98 2.18 -0.54 4.47c-2.61 4.14 -1.42 6.65 2.18 4.36c3.27 -2.18 3.81 -2.18 3.81 -0.11c0 2.61 3.27 1.85 4.36 -1.09c1.2 -3.05 3.27 -3.7 3.27 -0.98c0 2.83 2.51 1.09 3.7 -2.51c1.53 -4.47 2.72 -5.56 3.92 -3.59c0.76 1.31 1.74 0.65 4.9 -3.05c8.28 -9.59 13.07 -5.01 13.07 12.75c0 11.22 -0.11 11.77 -4.14 19.83c-2.29 4.58 -7.3 12.2 -11.22 16.89c-3.81 4.79 -9.26 11.87 -12.09 15.9c-2.72 4.14 -5.34 7.41 -5.66 7.41c-0.33 -0 -3.38 -4.36 -6.75 -9.59c-23.64 -36.6 -23.31 -35.84 -22.55 -51.31c0.76 -15.36 2.94 -19.61 18.63 -35.4c11.11 -11.22 12.85 -12.64 14.82 -11.66c3.92 2.18 9.04 1.53 8.28 -0.98c-0.44 -1.42 -0.11 -2.4 0.98 -2.83c0.98 -0.33 1.74 -1.31 1.74 -2.18c0 -2.18 -3.38 -3.59 -6.21 -2.51c-1.42 0.54 -2.51 0.65 -2.51 0.33c0 -1.31 4.47 -9.15 5.34 -9.15c0.44 -0 3.59 5.77 6.97 12.75zm30.83 -9.48c3.05 1.2 3.05 1.2 -2.29 5.88c-5.66 4.9 -5.88 7.19 -0.54 7.19c2.94 -0 3.05 0.11 1.85 3.16c-2.51 6.65 3.27 8.06 8.17 1.85c6.75 -8.5 0.98 17.97 -5.99 27.02c-1.42 1.96 -1.74 1.74 -4.58 -4.36c-8.71 -18.85 -9.37 -31.7 -1.96 -39.87c2.07 -2.29 1.63 -2.29 5.34 -0.87zm-145.76 4.36c2.18 -0 3.27 0.76 4.36 3.27c1.09 2.51 2.18 3.27 4.47 3.27c6.1 -0 10.57 8.17 14.27 26.14c2.4 11.44 8.28 27.13 14.27 37.8c3.7 6.75 3.59 6.75 -7.41 2.4c-13.94 -5.45 -17.21 -7.84 -23.97 -17.54c-3.38 -4.9 -7.84 -10.46 -9.8 -12.42c-4.25 -4.36 -4.36 -4.79 -0.98 -7.95c2.83 -2.72 5.01 -2.29 5.01 0.98c0 5.56 3.16 7.08 6.54 3.27c1.63 -1.85 2.29 -1.96 5.34 -0.76c6.32 2.4 6.75 -4.47 0.54 -9.37c-2.83 -2.18 -2.83 -2.18 0 -3.7c4.79 -2.51 3.92 -3.49 -4.79 -5.34c-3.7 -0.76 -3.7 -0.76 -0.54 -3.27c3.27 -2.51 3.27 -2.51 -0.22 -3.7c-1.85 -0.65 -3.59 -2.18 -3.92 -3.38c-0.44 -1.53 -1.53 -2.07 -4.25 -2.07c-4.9 -0 -9.8 -5.66 -6.54 -7.52c0.98 -0.65 2.51 -0.87 3.27 -0.65c0.87 0.33 2.83 0.54 4.36 0.54zm-129.09 1.85c0.44 0.33 0.33 1.2 -0.22 1.85c-0.65 0.76 -0.44 2.61 0.54 4.9c1.31 3.05 1.85 3.49 4.25 2.94c1.96 -0.54 2.94 -0.22 3.38 0.87c0.33 0.87 2.07 2.07 3.92 2.72c3.38 1.2 3.38 1.2 -1.31 6.21c-4.03 4.47 -4.47 5.23 -2.83 6.1c2.4 1.42 7.52 0.11 11 -2.61c2.72 -2.18 10.46 -2.29 13.73 -0.22c1.85 1.09 -0.11 2.61 -3.49 2.61c-3.38 -0 -3.81 0.98 -1.96 4.47c0.87 1.74 0.76 2.72 -0.76 4.36c-2.18 2.4 -3.7 1.74 -3.7 -1.74c0 -1.31 -0.76 -2.83 -1.74 -3.16c-2.18 -0.87 -5.88 0.22 -5.88 1.53c0 0.54 -1.2 1.85 -2.72 2.83c-2.51 1.63 -2.94 1.63 -4.68 0.11c-1.09 -0.98 -3.81 -2.51 -5.99 -3.49c-4.25 -1.74 -4.25 -1.85 -0.65 -7.08c1.09 -1.53 2.07 -3.92 2.29 -5.45c0.33 -2.94 -2.72 -3.59 -9.04 -1.74c-2.72 0.76 -2.94 0.65 -3.38 -3.59c-0.65 -7.3 5.77 -15.9 9.26 -12.42zm172.23 4.79c1.53 -1.31 2.18 -1.09 4.58 1.53c2.51 2.72 2.83 2.83 4.68 1.2c2.51 -2.29 3.05 -2.18 3.7 0.33c0.33 1.2 2.29 2.94 4.47 3.81c3.92 1.63 3.92 1.63 1.85 6.86c-4.9 12.31 -11 24.4 -12.09 23.75c-3.49 -2.18 -10.89 -22.99 -12.53 -35.4c-0.76 -5.99 -0.76 -5.99 1.42 -3.27c1.85 2.29 2.4 2.4 3.92 1.2zm244.23 -2.4c-0.33 0.54 -2.29 1.74 -4.36 2.72c-3.16 1.53 -3.81 2.4 -4.36 6.65c-0.87 5.56 -0.54 5.45 -5.56 3.38c-5.23 -2.29 -4.9 -3.05 4.03 -8.71c7.19 -4.58 11.66 -6.43 10.24 -4.03zm-332.15 4.14c0.76 2.18 -3.27 3.59 -6.21 2.18c-4.58 -2.29 -4.03 -4.25 1.2 -3.81c2.51 0.22 4.79 0.87 5.01 1.63zm379.75 -0.65c3.7 0.98 5.66 3.16 2.83 3.16c-0.87 -0 -0.76 0.54 0.11 1.63c3.16 3.81 -4.36 2.51 -8.28 -1.31c-3.92 -3.92 -1.63 -5.45 5.34 -3.49zm-344.57 5.77c0 0.22 -0.54 1.96 -1.2 3.81c-1.53 4.25 -3.16 2.72 -3.16 -2.94c0 -3.27 0.22 -3.49 2.18 -2.4c1.2 0.65 2.18 1.31 2.18 1.53zm197.17 -1.53c0 1.42 -5.23 3.92 -6.1 2.94c-0.44 -0.33 -0.44 -1.42 -0.11 -2.4c0.76 -1.85 6.21 -2.29 6.21 -0.54zm15.25 3.27c0 1.42 -0.76 2.18 -2.18 2.18c-2.4 -0 -2.51 -0.11 -1.53 -2.61c0.98 -2.51 3.7 -2.18 3.7 0.44zm-221.47 9.48c0.76 0.33 2.29 -0 3.49 -0.65c1.96 -1.09 2.29 -0.65 3.38 5.01c0.76 3.49 1.63 6.97 1.96 7.73c0.76 1.96 -6.1 -0.87 -11.11 -4.68c-3.38 -2.61 -3.59 -3.05 -3.16 -8.5c0.76 -8.39 1.53 -9.59 2.94 -4.14c0.65 2.72 1.85 5.01 2.51 5.23zm246.52 -7.84c0 1.74 -3.7 4.14 -4.68 3.05c-1.09 -0.98 1.31 -4.68 3.05 -4.68c0.87 -0 1.63 0.76 1.63 1.63zm-285.52 0.44c1.63 1.09 -0.11 5.56 -2.18 5.56c-4.25 -0 -7.08 -4.79 -3.38 -5.77c3.05 -0.87 3.92 -0.76 5.56 0.22zm251.75 2.72c0 0.76 1.09 2.83 2.4 4.47c2.61 3.38 2.94 3.38 -4.79 0.87c-1.42 -0.44 -1.96 -0 -1.96 1.63c0 1.96 -0.54 2.18 -3.7 1.63c-3.59 -0.54 -6.21 0.98 -3.92 2.4c2.29 1.42 1.2 4.03 -1.53 3.59c-3.7 -0.76 -5.77 0.65 -4.14 2.72c0.98 1.2 0.87 1.96 -0.87 3.49c-3.16 2.83 -2.72 3.81 1.74 3.81c2.29 -0 3.59 0.44 3.16 1.09c-1.53 2.4 3.16 2.51 4.68 0.22c1.96 -2.94 3.05 -3.05 3.81 -0.22c0.87 3.38 2.72 2.61 5.12 -2.29c2.07 -4.03 2.51 -4.25 3.7 -2.51c2.07 2.72 3.59 1.2 4.36 -4.47c0.87 -5.12 1.53 -5.77 3.7 -3.59c3.16 3.16 -0.44 14.05 -7.41 21.9c-3.59 4.14 -12.96 9.37 -21.79 12.2c-3.27 1.09 -9.37 3.59 -13.4 5.66c-4.14 2.07 -7.95 3.59 -8.39 3.38c-0.54 -0.22 1.09 -4.79 3.7 -10.13c2.51 -5.45 6.43 -14.49 8.71 -20.15c5.12 -13.29 8.17 -18.63 11.55 -20.26c1.53 -0.76 5.23 -2.61 8.17 -4.03c6.43 -3.27 7.08 -3.38 7.08 -1.42zm51.64 4.58c3.27 1.2 1.74 3.7 -7.73 13.29c-11.77 11.77 -30.72 22.44 -28.11 15.69c0.33 -0.98 2.51 -6.97 4.68 -13.29c4.68 -13.73 7.19 -16.56 8.61 -9.8c0.65 3.27 1.85 4.14 3.05 2.18c1.2 -1.85 2.51 -1.2 1.96 0.98c-0.33 1.31 0.22 2.18 1.53 2.51c1.09 0.33 2.83 0.98 3.81 1.42c2.18 0.87 4.47 -3.16 5.66 -9.59c0.76 -4.14 2.4 -5.01 6.54 -3.38zm-285.85 1.96c0 0.87 -0.76 1.74 -1.63 2.18c-0.87 0.33 -1.63 1.53 -1.63 2.72c0 2.4 6.1 5.01 8.93 3.92c2.61 -1.09 3.49 1.53 1.31 3.92c-2.51 2.83 0.65 7.08 4.03 5.23c1.42 -0.65 2.72 -0.65 4.14 -0c1.53 0.87 2.51 0.65 3.92 -0.98c2.94 -3.16 9.26 0.65 14.27 8.61c4.79 7.84 4.79 8.17 -1.96 7.3c-13.83 -1.74 -24.95 -8.06 -38.13 -21.57c-4.68 -4.68 -8.5 -8.93 -8.5 -9.37c0 -0.44 1.74 -0.87 3.92 -1.09c2.18 -0.11 4.68 -0.65 5.77 -1.31c2.61 -1.53 5.56 -1.31 5.56 0.44zm320.27 4.9c0 4.36 1.85 5.23 4.79 2.4c1.53 -1.42 3.16 -2.07 4.36 -1.63c1.09 0.44 2.72 -0.11 3.81 -1.09c1.74 -1.53 2.07 -1.63 2.61 -0.22c0.98 2.4 -6.65 6.43 -20.92 11c-5.56 1.85 -23.09 1.85 -24.84 0.11c-0.98 -0.87 5.56 -10.46 7.08 -10.46c0.76 -0 1.96 1.42 2.51 3.27c1.42 3.92 2.4 4.03 4.47 0.87c1.63 -2.4 1.63 -2.4 4.68 -0c4.58 3.7 7.3 3.27 6.97 -1.2c-0.44 -4.03 0.65 -6.21 2.94 -6.21c0.98 -0 1.53 1.09 1.53 3.16zm-370.93 1.09c0.87 1.53 -4.03 4.68 -5.23 3.49c-1.63 -1.63 0 -4.47 2.4 -4.47c1.2 -0 2.4 0.44 2.83 0.98zm400.12 2.18c1.09 0.65 1.2 1.42 0.11 3.7c-1.53 3.27 -2.29 3.49 -5.66 1.74c-3.49 -1.85 -3.49 -1.85 -0.65 -4.14c2.83 -2.4 4.14 -2.72 6.21 -1.31zm-366.13 9.59c4.03 2.83 12.31 11.33 12.31 12.64c0 0.22 -1.85 0.87 -4.03 1.31c-2.18 0.44 -8.5 2.61 -14.05 5.01c-11.87 5.12 -20.59 5.66 -28.76 1.96c-7.95 -3.59 -9.91 -6.1 -7.63 -9.7c0.87 -1.42 1.53 -1.09 3.59 1.53c2.83 3.49 5.99 2.83 8.39 -1.53c1.53 -2.83 4.03 -2.83 4.9 -0c0.76 2.51 4.47 4.79 5.99 3.81c0.65 -0.33 1.09 -2.18 1.09 -4.03c0 -2.94 0.33 -3.27 2.51 -2.61c10.13 2.94 13.4 0.98 7.84 -4.79c-2.51 -2.72 -2.83 -3.49 -1.63 -4.9c1.96 -2.4 4.58 -2.07 9.48 1.31zm360.91 1.42c2.51 1.31 2.51 1.42 0.54 2.83c-1.74 1.31 -2.29 1.2 -4.03 -0.22c-1.42 -1.31 -3.05 -1.63 -5.88 -1.2c-5.34 0.87 -7.08 2.61 -4.47 4.47c2.61 1.96 2.29 2.83 -0.87 2.83c-2.72 -0 -7.08 -3.38 -7.08 -5.45c0 -1.2 5.66 -4.25 9.8 -5.45c3.05 -0.76 8.06 0.11 11.98 2.18zm-265.59 9.8c6.65 11 8.71 15.14 8.28 16.56c-0.76 2.18 -13.94 -20.81 -13.94 -24.29c0 -1.74 0 -1.74 5.66 7.73zm236.28 -4.36c3.27 1.85 2.61 4.14 -1.31 3.92c-4.58 -0.11 -6.86 3.16 -3.81 5.34c1.85 1.42 1.96 1.85 0.65 4.47c-1.63 2.94 -0.44 4.68 3.16 4.79c0.98 -0 1.2 0.65 0.65 1.85c-2.29 5.56 -2.18 6.1 1.53 5.56c4.79 -0.65 5.23 0.76 1.2 4.68c-3.27 3.38 -3.59 3.38 -11.33 2.94c-8.39 -0.54 -18.52 -4.36 -17.76 -6.75c0.22 -0.65 3.38 -1.42 7.08 -1.74c5.88 -0.44 7.19 -0.98 9.48 -3.81c3.27 -4.03 3.38 -4.9 0.44 -4.9c-1.31 -0 -2.51 -0.87 -2.83 -2.18c-0.87 -3.16 -1.85 -2.83 -8.39 3.16c-7.95 7.3 -10.46 7.63 -20.04 3.05c-4.25 -2.07 -8.71 -4.03 -10.02 -4.36c-3.59 -0.87 -2.61 -2.4 4.68 -7.08c10.35 -6.86 12.96 -7.63 28.43 -8.28c7.73 -0.33 14.27 -0.87 14.6 -1.2c0.76 -0.76 1.2 -0.65 3.59 0.54zm-405.35 6.97c0 0.87 -0.44 1.96 -1.09 2.29c-1.96 1.2 -1.09 2.72 1.63 2.72c1.96 -0 2.72 0.54 2.72 2.07c0 3.81 -4.9 4.36 -11.44 1.2c-5.77 -2.83 -5.99 -2.72 -11.87 1.74c-7.41 5.66 -10.13 3.81 -6.65 -4.47c1.85 -4.68 4.47 -5.88 6.54 -3.16c1.42 1.96 1.53 1.96 4.36 -0.65c2.72 -2.51 2.94 -2.61 4.25 -0.87c1.85 2.61 4.25 2.51 6.65 -0.22c2.29 -2.51 4.9 -2.83 4.9 -0.65zm452.74 3.38c2.29 3.49 4.36 3.49 5.23 -0.11c0.44 -1.53 1.31 -2.61 2.07 -2.29c2.07 0.65 2.18 6.21 0.22 8.39c-5.34 5.88 1.96 10.24 7.52 4.47c3.16 -3.38 3.16 -3.38 4.47 -0.87c1.09 1.96 0.87 2.83 -1.2 5.34c-2.07 2.61 -2.29 3.49 -1.2 6.32c1.74 4.58 0.11 5.99 -5.34 4.47c-2.4 -0.65 -5.77 -1.2 -7.73 -1.2c-5.56 -0 -5.34 -2.07 0.65 -4.68c10.46 -4.58 5.88 -5.56 -6.21 -1.31c-7.19 2.51 -14.38 3.59 -14.38 2.18c0 -2.51 3.92 -5.77 7.52 -6.43c5.56 -0.87 7.63 -3.27 5.12 -5.88c-2.29 -2.61 -2.18 -4.25 0.11 -5.56c1.85 -0.98 1.74 -1.2 -0.11 -3.27c-1.85 -1.96 -1.85 -2.29 -0.33 -2.29c0.98 -0 2.61 1.2 3.59 2.72zm58.72 8.82c4.79 1.96 4.03 3.59 -2.29 4.36c-5.88 0.76 -8.06 -0.87 -5.45 -3.81c2.51 -2.72 2.61 -2.72 7.73 -0.54zm-469.73 2.4c9.48 2.94 9.48 2.94 6.1 7.08c-4.58 5.56 -11.33 9.26 -20.15 11.11c-11.98 2.51 -12.42 2.4 -10.24 -3.38c1.2 -3.05 1.2 -3.05 3.92 -0.11c3.38 3.7 3.38 3.7 5.34 -0.98c1.42 -3.49 1.96 -3.81 5.12 -3.49c4.79 0.44 5.45 -3.16 1.53 -8.28c-2.07 -2.83 -2.72 -5.34 -1.31 -5.01c0.11 -0 4.36 1.42 9.7 3.05zm217.22 15.69c-1.42 3.16 -5.66 9.15 -9.37 13.4c-9.04 10.46 -16.89 27.13 -19.17 40.96c-0.98 6.1 -2.61 9.26 -2.72 5.23c-0.11 -16.01 7.52 -34.97 19.39 -48.04c4.25 -4.58 8.93 -10.57 10.57 -13.4c3.92 -6.65 4.79 -5.45 1.31 1.85zm236.17 3.05c-1.09 2.4 -2.18 4.36 -2.51 4.36c-1.53 -0 -7.73 -5.01 -7.41 -5.99c0.44 -1.2 0.98 -1.2 4.68 -0.11c1.74 0.54 2.94 0.11 4.36 -1.42c2.72 -3.27 3.16 -1.85 0.87 3.16zm-494.03 0.54c-1.53 2.94 -3.59 3.05 -4.14 0.33c-0.44 -2.4 3.05 -5.66 4.47 -4.25c0.76 0.76 0.65 1.96 -0.33 3.92zm429.97 -0c2.61 1.85 4.14 6.97 3.05 10.46c-0.76 2.29 -0.76 2.29 -3.05 0.11c-3.81 -3.49 -7.41 -4.79 -10.57 -4.14c-1.74 0.33 -4.68 0.11 -6.75 -0.44c-2.4 -0.76 -3.7 -0.76 -3.92 -0c-0.22 0.54 -0.98 1.09 -1.74 1.09c-1.85 -0 -8.5 -7.08 -7.63 -7.95c1.63 -1.63 28.21 -0.87 30.61 0.87zm-244.56 13.83c4.36 5.66 9.15 15.9 13.51 28.76c5.01 14.71 6.21 16.23 5.45 6.97c-0.65 -7.08 -0.65 -7.08 1.53 -2.61c2.18 4.58 4.79 17.97 5.88 30.83c0.76 8.28 0 7.95 -3.38 -1.31c-1.31 -3.7 -5.01 -13.4 -8.28 -21.46c-3.27 -8.06 -7.19 -18.41 -8.82 -22.88c-2.61 -7.63 -6.75 -15.36 -11.22 -21.68c-3.05 -4.25 1.96 -1.09 5.34 3.38zm68.96 60.24c-1.42 27.23 -1.53 26.58 3.59 36.93c2.61 5.12 7.19 11.98 10.35 15.47c5.66 6.32 5.66 6.32 0.87 3.59c-5.88 -3.16 -12.42 -11.22 -16.67 -20.37c-1.85 -3.7 -3.49 -6.75 -3.81 -6.75c-0.65 -0 0.54 12.31 1.53 15.03c0.54 1.42 0.33 1.63 -0.76 0.54c-4.25 -3.92 -9.37 -37.47 -6.75 -43.9c1.09 -2.51 1.2 -2.29 1.2 2.18c0.11 4.79 2.61 16.45 4.14 18.95c1.63 2.61 4.58 -17.54 4.79 -32.57c0.11 -13.51 0.22 -14.6 1.2 -9.26c0.54 3.27 0.65 12.31 0.33 20.15zm-53.05 5.66c3.27 8.06 5.66 19.94 5.56 27.02l-0.11 7.63l-1.53 -8.06c-2.18 -11.98 -2.72 -12.53 -4.36 -4.47c-1.96 9.37 -7.19 19.72 -11.98 23.86c-5.23 4.68 -6.86 4.25 -2.61 -0.54c6.43 -7.41 9.8 -18.85 11.44 -38.89c0.87 -9.91 1.63 -11.44 3.59 -6.54zm18.74 56.21c-2.94 7.73 -6.54 12.2 -12.42 15.14c-2.4 1.2 -7.84 5.56 -11.98 9.48c-7.52 7.19 -7.52 7.19 -4.9 2.51c3.7 -6.65 20.59 -28.98 20.59 -27.23c0 0.76 -1.74 4.14 -3.81 7.41c-4.36 7.08 -4.14 7.84 1.2 3.81c4.79 -3.7 7.3 -7.73 10.46 -16.89c2.18 -6.32 2.51 -6.65 2.83 -3.7c0.22 1.85 -0.76 6.1 -1.96 9.48zm-74.73 -6.97c1.2 1.31 3.81 3.38 5.77 4.58c2.07 1.31 3.49 2.51 3.27 2.72c-0.76 0.87 -28.43 5.88 -28.98 5.23c-0.33 -0.33 1.85 -2.83 4.9 -5.66c3.05 -2.83 6.43 -6.43 7.41 -8.06c2.18 -3.27 3.81 -3.05 7.63 1.2zm173.1 -0c1.63 2.4 4.58 5.66 6.75 7.41c3.92 3.16 5.01 5.77 2.29 5.77c-3.38 -0 -17.43 -3.38 -21.46 -5.23c-4.25 -1.85 -4.25 -1.85 1.96 -6.97c7.63 -6.21 7.08 -6.21 10.46 -0.98z" fill="url(#ink)" fill-rule="evenodd"/>
  </g>
  <rect width="1024" height="512" fill="url(#sheen)"/>
</svg>